<?xml version="1.0" encoding="UTF-8"?>
<svg width="134px" height="143px" viewBox="0 0 134 143" version="1.1" xmlns="http://www.w3.org/2000/svg" xmlns:xlink="http://www.w3.org/1999/xlink">
    <!-- Generator: Sketch 56.3 (81716) - https://sketch.com -->
    <title>0xchange</title>
    <desc>Created with Sketch.</desc>
    <g id="Icons-+-Images" stroke="none" stroke-width="1" fill="none" fill-rule="evenodd">
        <g id="0xchange" transform="translate(1.000000, 1.000000)">
            <circle id="Oval" stroke="#FFFFFF" fill="#EC9B25" cx="65.5002569" cy="65.5" r="65.5"></circle>
            <circle id="Oval" stroke="#979797" cx="65.5002569" cy="65.5" r="65.5"></circle>
            <circle id="Oval" stroke="#FFFFFF" fill="#FBBC43" cx="66.5002569" cy="75.5" r="65.5"></circle>
            <path d="M19.0744757,19.2695313 L66.0531006,65.7016602 L112.56764,19.2695313 C103.547273,12.0863365 96.3809314,7.40729999 91.0686163,5.23242188 C85.7563013,3.05754376 77.2335148,1.31340313 65.5002569,0 C54.0902072,1.03808031 45.7798231,2.63850349 40.5691046,4.80126953 C35.3583861,6.96403558 28.1935098,11.7867895 19.0744757,19.2695313 Z" id="Path-3" fill="#EC9B25"></path>
            <path d="M19.0002569,85.0339355 L65.9981689,131.5 L112.493421,85.0339355 C103.473054,77.8507407 96.3067126,73.1717043 90.9943976,70.9968262 C85.6820825,68.8219481 77.159296,67.0778074 65.4260382,65.7644043 C54.0159885,66.8024846 45.7056044,68.4029078 40.4948858,70.5656738 C35.2841673,72.7284399 28.119291,77.5511938 19.0002569,85.0339355 Z" id="Path-3" fill="#EC9B25" transform="translate(65.746839, 98.632202) scale(1, -1) translate(-65.746839, -98.632202) "></path>
            <path d="M112.493421,19.6367188 L66.5002569,65.5 L112.493421,112.230469 C119.929981,102.35477 124.884571,94.219516 127.357191,87.824707 C129.82981,81.429898 131.044165,73.6107249 131.000257,64.3671875 C129.739143,53.533978 128.050504,45.5600197 125.934339,40.4453125 C123.818174,35.3306053 119.337868,28.3944074 112.493421,19.6367188 Z" id="Path-4" fill="#E4660B"></path>
            <path d="M110.993164,20 L65.944458,65.7058105 L110.993164,112.59375 C118.429724,102.718051 123.384314,94.5827973 125.856934,88.1879883 C128.329553,81.7931793 129.543909,73.9740061 129.5,64.7304687 C128.238886,53.8972593 126.550247,45.923301 124.434082,40.8085937 C122.317917,35.6938865 117.837611,28.7576886 110.993164,20 Z" id="Path-4" fill="#E4660B"></path>
            <path d="M47.5484114,19 L1.00025693,65.7095947 L47.5484114,111.59375 C54.9849716,101.718051 59.9395614,93.5827973 62.4121809,87.1879883 C64.8848004,80.7931793 66.0991558,72.9740061 66.0552473,63.7304688 C64.7941335,52.8972593 63.1054942,44.923301 60.9893293,39.8085938 C58.8731645,34.6938865 54.3928585,27.7576886 47.5484114,19 Z" id="Path-4" fill="#FBBC43" transform="translate(33.528327, 65.296875) scale(-1, 1) translate(-33.528327, -65.296875) "></path>
            <path d="M7.57691709,35.4233398 L38.6330694,66 L7.57691709,96.3525391 C4.3449408,88.5602632 2.27983663,82.6481538 1.38160459,78.6162109 C0.48337255,74.584268 0.0228376864,69.1597889 2.84217094e-14,62.3427734 C0.831727163,55.5331344 1.6949313,50.5389938 2.5896124,47.3603516 C3.48429351,44.1817093 5.1467284,40.2027054 7.57691709,35.4233398 Z" id="Path-5" fill="#E4660B"></path>
            <path d="M100.577174,35 L131.633326,65.5766602 L100.577174,95.9291992 C97.3451977,88.1369234 95.2800936,82.224814 94.3818615,78.1928711 C93.4836295,74.1609282 93.0230946,68.736449 93.0002569,61.9194336 C93.8319841,55.1097946 94.6951882,50.1156539 95.5898693,46.9370117 C96.4845504,43.7583695 98.1469853,39.7793656 100.577174,35 Z" id="Path-5" fill="#FBBC43" transform="translate(112.316792, 65.464600) scale(-1, 1) translate(-112.316792, -65.464600) "></path>
            <circle id="Oval" stroke="#FFFFFF" cx="65.5002569" cy="65.5" r="65.5"></circle>
        </g>
    </g>
</svg>