<?xml version="1.0" encoding="UTF-8" standalone="no"?><!DOCTYPE svg PUBLIC "-//W3C//DTD SVG 1.1//EN" "http://www.w3.org/Graphics/SVG/1.1/DTD/svg11.dtd"><svg width="100%" height="100%" viewBox="0 0 639 606" version="1.1" xmlns="http://www.w3.org/2000/svg" xmlns:xlink="http://www.w3.org/1999/xlink" xml:space="preserve" xmlns:serif="http://www.serif.com/" style="fill-rule:evenodd;clip-rule:evenodd;stroke-linecap:round;stroke-linejoin:round;stroke-miterlimit:1.5;"><g id="_0xworld" serif:id="0xworld"><circle cx="332.464" cy="300.602" r="300.217" style="fill:#ff972c;"/><g><path d="M267.992,263.379c95.095,-67.841 207.102,-111.287 324.229,-112.748" style="fill:none;stroke:#e4e044;stroke-width:2px;stroke-dasharray:0.13,3.38,0,0;stroke-dashoffset:2;"/><path d="M83.053,463.414c48.697,-14.502 94.473,-39.195 123.737,-71.44c31.798,-35.037 49.083,-74.871 61.202,-128.595" style="fill:none;stroke:#e4e044;stroke-width:2px;stroke-dasharray:0.13,3.38,0,0;stroke-dashoffset:2;"/><path d="M592.221,150.631c7.343,123.629 -50.671,210.409 -162.115,267.066" style="fill:none;stroke:#e4e044;stroke-width:2px;stroke-dasharray:0.13,3.38,0,0;stroke-dashoffset:2;"/><path d="M430.106,417.697c9.326,4.869 16.772,178.925 -22.035,185.919c-15.001,2.704 -21.343,-6.777 -21.343,-6.777" style="fill:none;stroke:#e4e044;stroke-width:2px;stroke-dasharray:0.13,3.38,0,0;stroke-dashoffset:2;"/><path d="M267.992,263.379c0,0 -269.722,-11.519 -266.681,39.556c1.017,17.084 30.936,16.343 30.936,16.343" style="fill:none;stroke:#e4e044;stroke-width:2px;stroke-dasharray:0.13,3.38,0,0;stroke-dashoffset:2;"/><path d="M267.992,263.379c-32.44,-89.478 -89.801,-135.494 -163.154,-153.623" style="fill:none;stroke:#e4e044;stroke-width:2px;stroke-dasharray:0.13,3.38,0,0;stroke-dashoffset:2;"/><path d="M430.106,417.697c63.33,-23.488 126.916,-37.543 192.379,-39.186" style="fill:none;stroke:#e4e044;stroke-width:2px;stroke-dasharray:0.13,3.38,0,0;stroke-dashoffset:2;"/></g><g><g><circle cx="105.401" cy="109.336" r="11.772" style="fill:#ffd364;"/><circle cx="105.401" cy="109.336" r="16.294" style="fill:none;stroke:#ffd364;stroke-width:1.5px;"/></g><g><circle cx="267.992" cy="263.379" r="11.772" style="fill:#ffd364;"/><circle cx="267.992" cy="263.379" r="16.294" style="fill:none;stroke:#ffd364;stroke-width:1.5px;"/></g><g><circle cx="430.583" cy="417.422" r="11.772" style="fill:#ffd364;"/><circle cx="430.583" cy="417.422" r="16.294" style="fill:none;stroke:#ffd364;stroke-width:1.5px;"/></g><g><circle cx="621.175" cy="377.832" r="11.772" style="fill:#ffd364;"/><circle cx="621.175" cy="377.832" r="16.294" style="fill:none;stroke:#ffd364;stroke-width:1.5px;"/></g><g><circle cx="592.221" cy="150.631" r="11.772" style="fill:#ffd364;"/><circle cx="592.221" cy="150.631" r="16.294" style="fill:none;stroke:#ffd364;stroke-width:1.5px;"/></g><g><circle cx="83.053" cy="463.414" r="11.772" style="fill:#ffd364;"/><circle cx="83.053" cy="463.414" r="16.294" style="fill:none;stroke:#ffd364;stroke-width:1.5px;"/></g></g></g></svg>