<svg xmlns="http://www.w3.org/2000/svg" width="2000" height="2003.06" viewBox="0 0 2000 2003.06"><defs><linearGradient id="0" x1="1814.94" y1="408.95" x2="236.61" y2="1584.3" gradientUnits="userSpaceOnUse"><stop stop-color="#054058"/><stop offset=".5" stop-color="#127ba6"/><stop offset="1" stop-color="#054058"/></linearGradient></defs><path d="M690.15,51.85c332.79-115.52,722.68-33.5,984.36,201.23C1806,370.54,1905.38,524.68,1955,694.1c30.56,100.82,45,206.35,45,311.55-7.14,231.71-79.59,466.95-230,646.28-138.78,169.08-340.44,279-552.25,326.16-106.29,24.68-216,28.29-324.57,22.67-196.79-15.28-385.35-101.25-531.26-233.4-125.18-111.65-222.06-252.78-291.41-405C37.24,1289.33,16,1211.25,5,1131.83c-11.25-130-4.79-262.44,32.49-388,22-76.91,52-153.3,102.09-216.61-26.7,92.86-42,188.9-43.41,285.45,4.12,131,27.88,263,83.62,382.49,33.92,70.86,77.24,137.69,130.47,195.7,72.45,76.06,165.89,128.62,263.28,165.89,84.29,33.33,174.12,51.55,264.62,55.16,157.41-2.94,319-45.92,443.36-145.83,112.92-97,185.29-235,221.22-377.87,14.44-121.65-2-249.68-61-358.24-74.89-139.7-219-237.5-374.94-262.35-92.1-11.76-189.15-8.23-275.37,29.3-109.06,47.68-196,146.5-223.91,262.86-25.69,104.69-10.91,222.81,54.66,310.54,112.24,151.54,355.88,188.48,500.45,62.38,71.36,58.18,142.63,116.28,213,175.72-71.95,98.14-182.77,163-298.12,197.12-166.9,47.52-351.27,30.06-506-48.69C242.09,1319.05,84.84,967.37,152.93,657.74,201.87,376.25,426.36,147.05,690.15,51.85Z" fill="url(#0)"/></svg>