<?xml version="1.0" standalone="no"?>
<svg width="180" height="180" xmlns="http://www.w3.org/2000/svg" preserveAspectRatio="xMidYMid meet">
<g>
    <rect fill="none" id="canvas_background" height="402" width="582" y="-1" x="-1"/>
</g>
<g>
    <ellipse ry="53.999997" rx="53.5" id="svg_4" cy="90.453126" cx="90.999997" stroke-width="1.5" fill="#fff"/>
    <g id="svg_1" fill="#245cef" transform="translate(0,180) scale(0.10000000149011612,-0.10000000149011612) ">
        <path id="svg_2" d="m785,1789c-140,-18 -307,-85 -415,-164c-84,-61 -202,-196 -252,-286c-308,-557 36,-1242 667,-1330c417,-58 837,207 969,613c77,237 45,516 -83,738c-58,100 -220,261 -314,312c-187,102 -385,142 -572,117zm205,-369c190,-31 358,-181 418,-374c22,-73 21,-226 -2,-296c-59,-174 -177,-295 -344,-351c-87,-30 -231,-32 -312,-5c-174,59 -295,177 -351,344c-18,51 -23,89 -23,162c1,155 45,263 154,372c126,126 282,176 460,148z"/>
        <path id="svg_3" d="m746,1054c-23,-23 -23,-285 0,-308c23,-23 285,-23 308,0c23,23 23,285 0,308c-23,23 -285,23 -308,0z"/>
    </g>
</g>
</svg>