<?xml version="1.0" encoding="UTF-8" standalone="no"?><!DOCTYPE svg PUBLIC "-//W3C//DTD SVG 1.1//EN" "http://www.w3.org/Graphics/SVG/1.1/DTD/svg11.dtd"><svg width="100%" height="100%" viewBox="0 0 147 219" version="1.1" xmlns="http://www.w3.org/2000/svg" xmlns:xlink="http://www.w3.org/1999/xlink" xml:space="preserve" xmlns:serif="http://www.serif.com/" style="fill-rule:evenodd;clip-rule:evenodd;stroke-linecap:round;stroke-linejoin:round;stroke-miterlimit:1.5;"><g id="giants"><path d="M44.243,84.5l-43.301,-25l0,100l43.301,25l0,-53.507l0,-46.493Z" style="fill:url(#_Linear1);"/><path d="M145.279,92.833l-43.301,25l0,100l43.301,-25l0,-100Z" style="fill:url(#_Linear2);"/><path d="M87.544,59.5l-43.301,25l0,100l45.864,-26.479l-2.563,-98.521Z" style="fill:url(#_Linear3);"/><path d="M101.978,117.833l-43.301,-25l0,100l43.301,25l0,-53.507l0,-46.493Z" style="fill:url(#_Linear4);"/><g><path d="M145.279,92.833l-43.301,25l-43.301,-25l43.301,-25l43.301,25Z" style="fill:#efefef;"/><path d="M87.544,59.5l-43.301,25l-43.301,-25l43.301,-25l43.301,25Z" style="fill:#efefef;"/><path d="M145.279,176.167l0,-83.334l-43.301,-25l-43.301,25l0,83.334" style="fill:none;stroke:#808080;stroke-width:1.5px;"/><path d="M58.677,92.833l43.301,25l43.301,-25" style="fill:none;stroke:#808080;stroke-width:1.5px;"/><path d="M101.978,117.833l0,83.334" style="fill:none;stroke:#808080;stroke-width:1.5px;"/></g><g><path d="M87.544,76.167l0,-16.667l-43.301,-25l-43.301,25l0,83.333" style="fill:none;stroke:#808080;stroke-width:1.5px;"/><path d="M0.942,59.5l43.301,25l43.301,-25" style="fill:none;stroke:#808080;stroke-width:1.5px;"/><path d="M44.243,84.5l0,83.333" style="fill:none;stroke:#808080;stroke-width:1.5px;"/></g><g><path d="M29.809,76.167l43.302,25l43.301,-25l0,-50l-43.301,-25l-43.302,25l0,50Z" style="fill:#ff962c;stroke:#ffd364;stroke-width:1.5px;"/><path d="M29.809,26.167l43.302,25l43.301,-25" style="fill:none;stroke:#ffd364;stroke-width:1.5px;"/><path d="M73.111,51.167l0,50" style="fill:none;stroke:#ffd364;stroke-width:1.5px;"/></g><path d="M0.942,159.5l0,-16.667" style="fill:none;stroke:#808080;stroke-width:1.5px;stroke-dasharray:2.06,3.66,0,0;stroke-dashoffset:7.13;"/><path d="M44.243,184.5l0,-16.667" style="fill:none;stroke:#808080;stroke-width:1.5px;stroke-dasharray:2.06,3.66,0,0;stroke-dashoffset:7.13;"/><path d="M58.677,192.833l0,-16.666" style="fill:none;stroke:#808080;stroke-width:1.5px;stroke-dasharray:2.06,3.66,0,0;stroke-dashoffset:7.13;"/><path d="M101.978,217.833l0,-16.666" style="fill:none;stroke:#808080;stroke-width:1.5px;stroke-dasharray:2.06,3.66,0,0;stroke-dashoffset:7.13;"/><path d="M145.279,192.833l0,-16.666" style="fill:none;stroke:#808080;stroke-width:1.5px;stroke-dasharray:2.06,3.66,0,0;stroke-dashoffset:7.13;"/></g><defs><linearGradient id="_Linear1" x1="0" y1="0" x2="1" y2="0" gradientUnits="userSpaceOnUse" gradientTransform="matrix(16.8778,-33.225,33.225,16.8778,15.4616,144.186)"><stop offset="0" style="stop-color:#e3e3e3;stop-opacity:0"/><stop offset="0.46" style="stop-color:#dadada;stop-opacity:0.78"/><stop offset="1" style="stop-color:#d8d8d8;stop-opacity:1"/></linearGradient><linearGradient id="_Linear2" x1="0" y1="0" x2="1" y2="0" gradientUnits="userSpaceOnUse" gradientTransform="matrix(-28.8675,-50,50,-28.8675,145.279,176.167)"><stop offset="0" style="stop-color:#fff;stop-opacity:0"/><stop offset="0.43" style="stop-color:#b8b8b8;stop-opacity:0.8"/><stop offset="1" style="stop-color:#a6a6a6;stop-opacity:1"/></linearGradient><linearGradient id="_Linear3" x1="0" y1="0" x2="1" y2="0" gradientUnits="userSpaceOnUse" gradientTransform="matrix(-28.8675,-50,50,-28.8675,87.5445,142.833)"><stop offset="0" style="stop-color:#fff;stop-opacity:0"/><stop offset="0.43" style="stop-color:#b8b8b8;stop-opacity:0.8"/><stop offset="1" style="stop-color:#a6a6a6;stop-opacity:1"/></linearGradient><linearGradient id="_Linear4" x1="0" y1="0" x2="1" y2="0" gradientUnits="userSpaceOnUse" gradientTransform="matrix(16.8778,-33.225,33.225,16.8778,73.1966,177.519)"><stop offset="0" style="stop-color:#e3e3e3;stop-opacity:0"/><stop offset="0.46" style="stop-color:#dadada;stop-opacity:0.78"/><stop offset="1" style="stop-color:#d8d8d8;stop-opacity:1"/></linearGradient></defs></svg>