<?xml version="1.0" encoding="UTF-8" standalone="no"?><!DOCTYPE svg PUBLIC "-//W3C//DTD SVG 1.1//EN" "http://www.w3.org/Graphics/SVG/1.1/DTD/svg11.dtd"><svg width="100%" height="100%" viewBox="0 0 233 285" version="1.1" xmlns="http://www.w3.org/2000/svg" xmlns:xlink="http://www.w3.org/1999/xlink" xml:space="preserve" xmlns:serif="http://www.serif.com/" style="fill-rule:evenodd;clip-rule:evenodd;stroke-linejoin:round;stroke-miterlimit:2;"><g id="corkboard-expanded" serif:id="corkboard expanded"><path d="M15.147,1l-14.434,8.333l0,150l216.507,125l14.433,-8.333l0,-150l-216.506,-125Z" style="fill:#fff;"/><path d="M15.397,0.567l216.506,125c0,0 0.182,0.048 0.25,0.433l0,150c-0.02,0.114 -0.018,0.239 -0.25,0.433l-14.433,8.333c-0.284,0.104 -0.392,0.04 -0.5,0l-216.507,-125c-0.088,-0.074 -0.197,-0.135 -0.25,-0.433l0,-150c0.02,-0.114 0.019,-0.238 0.25,-0.433l14.434,-8.333c0.188,-0.068 0.097,-0.147 0.5,0Zm-14.184,9.055l0,149.423l216.007,124.711l13.933,-8.045l0,-149.422l-216.006,-124.712c-4.645,2.682 -9.289,5.363 -13.934,8.045Z" style="fill:none;"/><path d="M231.653,126l-14.433,8.333l0,150l14.433,-8.333l0,-150Z" style="fill:#e9e9e9;"/><path d="M231.808,125.524l0.345,0.476l0,150c-0.02,0.114 -0.018,0.239 -0.25,0.433l-14.433,8.333l-0.585,-0.061l-0.165,-0.372l0,-150c0.052,-0.297 0.161,-0.358 0.25,-0.433l14.433,-8.333c0,0 0.175,-0.067 0.405,-0.043Zm-14.088,9.098l0,148.845l13.433,-7.756l0,-148.845c-4.478,2.585 -8.956,5.171 -13.433,7.756Z" style="fill:none;"/><path d="M15.397,0.567l216.506,125c0,0 0.182,0.048 0.25,0.433l0,150c-0.02,0.114 -0.018,0.239 -0.25,0.433l-14.433,8.333c-0.304,0.103 -0.746,-0.367 -0.746,-0.367l0.246,-0.499l14.183,-8.189l0,-149.422l-216.006,-124.712l-14.184,8.189c-0.303,0.103 -0.745,-0.367 -0.745,-0.367c0,0 -0.088,-0.206 0.245,-0.499l14.434,-8.333c0.188,-0.068 0.097,-0.147 0.5,0Z" style="fill:#808080;"/><path d="M22.655,38.668l-7.508,-4.207l0,116.539l7.508,-4.335l180.02,103.935l0,-107.869l-180.02,-104.063Z" style="fill:#e9e9e9;"/><path d="M15.391,34.025l7.511,4.208l180.023,104.065c0.089,0.074 0.198,0.135 0.25,0.432l0,107.87l-0.345,0.476l-0.405,-0.043l-179.77,-103.79l-7.258,4.19l-0.585,-0.061l-0.165,-0.372l0,-116.539l0.342,-0.474c0,0 0.183,-0.03 0.402,0.038Zm0.256,116.109l6.758,-3.902c0,0 0.132,-0.133 0.5,0l179.27,103.502l0,-106.715l-179.768,-103.917l-6.76,-3.788l0,114.82Z" style="fill:none;"/><path d="M231.462,125.365c0.435,0.063 0.592,0.672 0.211,0.928l-14.197,8.47c-0.467,0.246 -1.125,-0.449 -0.513,-0.859l14.197,-8.47c0.072,-0.038 0.087,-0.077 0.302,-0.069Z" style="fill:#808080;"/><path d="M0.963,8.9l216.27,124.864c0,0 0.182,0.048 0.25,0.432l0.237,150.137l-0.346,0.476l-0.404,-0.043l-216.507,-125c-0.088,-0.074 -0.197,-0.135 -0.25,-0.433l0,-150l0.346,-0.475c0,0 0.185,-0.029 0.404,0.042Zm0.25,150.145l215.505,124.422l-0.235,-148.981l-215.27,-124.287l0,148.846Z" style="fill:#808080;"/><path d="M15.397,33.9l187.402,108.197c0,0 0.182,0.048 0.25,0.432l0.237,116.803l-0.345,0.477l-0.405,-0.043l-187.639,-108.333c-0.232,-0.194 -0.23,-0.319 -0.25,-0.433l0,-116.667l0.345,-0.475c0,0 0.185,-0.029 0.405,0.042Zm0.25,116.811l186.637,107.755l-0.234,-115.647l-186.403,-107.62l0,115.512Z" style="fill:#808080;"/><path d="M22.231,37.851c0.11,0.074 0.244,0.137 0.309,0.462l0,108.419l180.496,104.209l0.245,0.498c0,0 -0.032,0.61 -0.745,0.368l-180.746,-104.353c-0.089,-0.075 -0.198,-0.136 -0.25,-0.433l0,-108.708l0.308,-0.462c0,0 0.171,-0.042 0.383,0Z" style="fill:#808080;"/><path d="M22.07,146.521c0.879,0.086 0.543,0.73 0.22,0.932l-6.893,3.98c-0.463,0.245 -1.104,-0.487 -0.5,-0.866l6.893,-3.98c0.082,-0.043 0.1,-0.07 0.28,-0.066Z" style="fill:#808080;"/><path d="M44.015,101l0,-33.333l28.867,16.666l0,33.334l-28.867,-16.667Z" style="fill:#fff;"/><path d="M44.086,67.172c0.092,0.022 0.092,0.022 0.179,0.062l28.867,16.666c0.133,0.093 0.224,0.141 0.25,0.433l0,33.334c-0.026,0.272 -0.075,0.278 -0.138,0.345c-0.146,0.152 -0.292,0.234 -0.612,0.088l-28.867,-16.667c-0.265,-0.185 -0.236,-0.264 -0.25,-0.433l0,-33.333c0.041,-0.439 0.137,-0.516 0.571,-0.495Zm0.429,33.539l27.867,16.09l0,-32.179l-27.867,-16.089l0,32.178Z" style="fill:#808080;"/><path d="M145.051,192.667l0,-33.334l28.867,16.667l0,33.333l-28.867,-16.666Z" style="fill:#fff;"/><path d="M145.122,158.838c0.092,0.023 0.092,0.023 0.179,0.062l28.867,16.667c0.133,0.093 0.225,0.141 0.25,0.433l0,33.333c-0.026,0.273 -0.074,0.279 -0.138,0.345c-0.145,0.153 -0.292,0.234 -0.612,0.088l-28.867,-16.666c-0.133,-0.093 -0.225,-0.141 -0.25,-0.433l0,-33.334c0.042,-0.438 0.137,-0.515 0.571,-0.495Zm0.429,33.54l27.867,16.089l0,-32.178l-27.867,-16.09l0,32.179Z" style="fill:#808080;"/><path d="M87.316,92.667l0,66.666l43.301,25l0,-66.666l-43.301,-25Z" style="fill:#fff;"/><path d="M87.445,92.184l0.121,0.05l43.301,25c0.139,0.106 0.226,0.251 0.25,0.433l0,66.666c-0.075,0.57 -0.299,0.62 -0.75,0.433l-43.301,-25c-0.139,-0.106 -0.226,-0.251 -0.25,-0.433l0,-66.666c0.042,-0.324 0.218,-0.537 0.629,-0.483Zm0.371,66.861l42.301,24.422l0,-65.512l-42.301,-24.422l0,65.512Z" style="fill:#808080;"/><path d="M51.231,113.5l14.434,8.333l0,16.667l-14.434,-8.333l0,-16.667Z" style="fill:#ffd364;"/><path d="M51.284,113.003c0.131,0.023 0.158,0.045 0.197,0.064l14.434,8.333c0.231,0.154 0.234,0.181 0.25,0.433l0,16.667c-0.026,0.372 -0.407,0.6 -0.75,0.433l-14.434,-8.333c-0.23,-0.154 -0.233,-0.181 -0.25,-0.433l0,-16.667c0.037,-0.528 0.383,-0.503 0.553,-0.497Zm0.447,16.875l13.434,7.756l0,-15.512l-13.434,-7.756l0,15.512Z" style="fill:#808080;"/><path d="M152.268,130.167l14.433,8.333l0,16.667l-14.433,-8.334l0,-16.666Z" style="fill:#ffd364;"/><path d="M152.32,129.669c0.131,0.024 0.159,0.046 0.198,0.065l14.433,8.333c0.231,0.154 0.234,0.18 0.25,0.433l0,16.667c-0.026,0.371 -0.407,0.6 -0.75,0.433l-14.433,-8.334c-0.231,-0.154 -0.234,-0.18 -0.25,-0.433l0,-16.666c0.037,-0.529 0.382,-0.503 0.552,-0.498Zm0.448,16.876l13.433,7.756l0,-15.512l-13.433,-7.756l0,15.512Z" style="fill:#808080;"/><path d="M94.629,113.03c0.134,0.023 0.162,0.046 0.202,0.065l26.304,15.187c0.433,0.293 0.094,1.154 -0.5,0.866l-26.304,-15.187c-0.383,-0.259 -0.268,-0.944 0.298,-0.931Z" style="fill:#808080;"/><path d="M94.629,121.308c0.043,0.007 0.08,0.005 0.202,0.064l26.304,15.187c0.437,0.296 0.063,1.139 -0.5,0.866l-26.304,-15.187c-0.388,-0.263 -0.243,-0.943 0.298,-0.93Z" style="fill:#808080;"/><path d="M94.629,128.217c0.134,0.022 0.162,0.045 0.202,0.065l26.304,15.186c0.438,0.296 0.111,1.163 -0.5,0.866l-26.304,-15.186c-0.388,-0.263 -0.243,-0.944 0.298,-0.931Z" style="fill:#808080;"/><path d="M94.629,136.494c0.043,0.008 0.08,0.005 0.202,0.065l26.304,15.187c0.425,0.287 0.129,1.171 -0.5,0.866l-26.304,-15.187c-0.388,-0.263 -0.243,-0.944 0.298,-0.931Z" style="fill:#808080;"/><path d="M50.688,80.013c0.092,0.015 0.115,0.022 0.198,0.064l14.434,8.334c0.459,0.298 0.091,1.167 -0.5,0.866l-14.434,-8.334c-0.398,-0.258 -0.298,-0.961 0.302,-0.93Z" style="fill:#808080;"/><path d="M50.688,87.659c0.092,0.015 0.115,0.022 0.198,0.064l14.434,8.334c0.459,0.298 0.091,1.167 -0.5,0.866l-14.434,-8.334c-0.395,-0.256 -0.32,-0.963 0.302,-0.93Z" style="fill:#808080;"/><path d="M50.688,95.936c0.092,0.015 0.115,0.023 0.198,0.065l14.434,8.333c0.819,0.532 -0.043,1.099 -0.5,0.866l-14.434,-8.333c-0.79,-0.513 -0.014,-0.947 0.302,-0.931Z" style="fill:#808080;"/><path d="M152.543,171.207c0.091,0.015 0.115,0.022 0.198,0.065l14.433,8.333c0.828,0.538 -0.029,1.106 -0.5,0.866l-14.433,-8.333c-0.79,-0.513 -0.015,-0.947 0.302,-0.931Z" style="fill:#808080;"/><path d="M152.543,178.224c0.092,0.015 0.115,0.022 0.198,0.064l14.433,8.334c0.82,0.532 -0.043,1.099 -0.5,0.866l-14.433,-8.334c-0.79,-0.512 -0.015,-0.946 0.302,-0.93Z" style="fill:#808080;"/><circle cx="159.707" cy="137.981" r="1.262" style="fill:#d3d3d3;"/><path d="M159.753,136.219c1.518,0.059 2.47,2.611 0.64,3.385c-1.236,0.524 -2.931,-0.839 -2.309,-2.309c0.279,-0.659 0.875,-1.085 1.669,-1.076Zm-0.065,1c-0.721,0.028 -1.101,1.496 0,1.524c0.757,0.019 1.11,-1.537 0,-1.524Z" style="fill:#808080;"/><circle cx="57.853" cy="120.997" r="1.262" style="fill:#d3d3d3;"/><path d="M57.898,119.235c1.719,0.067 2.404,3.524 -0.045,3.524c-1.661,0 -2.781,-3.557 0.045,-3.524Zm-0.065,1c-0.844,0.033 -0.825,1.918 0.298,1.472c0.615,-0.245 0.621,-1.483 -0.298,-1.472Z" style="fill:#808080;"/></g></svg>