<?xml version="1.0" encoding="UTF-8" standalone="no"?><!DOCTYPE svg PUBLIC "-//W3C//DTD SVG 1.1//EN" "http://www.w3.org/Graphics/SVG/1.1/DTD/svg11.dtd"><svg width="100%" height="100%" viewBox="0 0 302 287" version="1.1" xmlns="http://www.w3.org/2000/svg" xmlns:xlink="http://www.w3.org/1999/xlink" xml:space="preserve" xmlns:serif="http://www.serif.com/" style="fill-rule:evenodd;clip-rule:evenodd;stroke-linecap:round;stroke-linejoin:round;stroke-miterlimit:1.5;"><g id="venn-diagram" serif:id="venn diagram"><g><circle cx="100.899" cy="100.973" r="100" style="fill:#b3b3b3;stroke:#fff;stroke-width:1px;"/><g><path d="M20.909,117.664l-3.855,0.896l-0.285,-1.225l10.361,-2.407l0.284,1.225l-0.938,0.218c0.415,0.119 0.759,0.325 1.031,0.62c0.272,0.295 0.46,0.664 0.563,1.108c0.209,0.901 0.025,1.691 -0.554,2.371c-0.58,0.68 -1.484,1.162 -2.713,1.448c-1.212,0.281 -2.224,0.243 -3.035,-0.116c-0.811,-0.359 -1.32,-0.987 -1.529,-1.884c-0.104,-0.448 -0.099,-0.866 0.015,-1.252c0.113,-0.387 0.332,-0.721 0.655,-1.002Zm3.62,2.956c0.95,-0.221 1.632,-0.538 2.046,-0.952c0.413,-0.415 0.552,-0.917 0.414,-1.507c-0.137,-0.591 -0.485,-0.984 -1.045,-1.179c-0.56,-0.195 -1.311,-0.183 -2.252,0.036c-0.945,0.219 -1.625,0.54 -2.04,0.961c-0.414,0.422 -0.553,0.928 -0.416,1.518c0.138,0.59 0.483,0.98 1.037,1.17c0.554,0.189 1.306,0.174 2.256,-0.047Z" style="fill:#fff;fill-rule:nonzero;"/><path d="M21.562,106.545l0.611,-0.069l0.609,5.414l0.041,-0.004c1.041,-0.081 1.764,-0.363 2.168,-0.846c0.404,-0.484 0.562,-1.119 0.473,-1.907c-0.045,-0.399 -0.155,-0.808 -0.331,-1.229c-0.175,-0.42 -0.42,-0.863 -0.734,-1.327l1.244,-0.14c0.248,0.453 0.445,0.895 0.592,1.326c0.147,0.431 0.244,0.852 0.291,1.264c0.132,1.182 -0.118,2.146 -0.752,2.891c-0.634,0.746 -1.573,1.188 -2.819,1.329c-1.214,0.136 -2.219,-0.081 -3.017,-0.652c-0.798,-0.57 -1.258,-1.399 -1.381,-2.486c-0.109,-0.969 0.134,-1.77 0.728,-2.403c0.593,-0.634 1.352,-1.02 2.277,-1.161Zm-0.227,1.291c-0.519,0.113 -0.951,0.356 -1.297,0.727c-0.346,0.372 -0.484,0.865 -0.415,1.481c0.068,0.602 0.323,1.076 0.765,1.421c0.443,0.344 0.915,0.507 1.417,0.487l-0.47,-4.116Z" style="fill:#fff;fill-rule:nonzero;"/><path d="M25.509,98.029c0.196,0.337 0.343,0.684 0.441,1.042c0.098,0.358 0.147,0.723 0.147,1.097c0,1.185 -0.355,2.111 -1.066,2.779c-0.711,0.668 -1.695,1.002 -2.953,1.002c-1.258,0 -2.242,-0.333 -2.953,-1.001c-0.711,-0.667 -1.067,-1.593 -1.067,-2.778c0,-0.369 0.048,-0.73 0.143,-1.08c0.096,-0.351 0.244,-0.705 0.444,-1.06l1.32,0c-0.296,0.332 -0.511,0.666 -0.643,1.001c-0.132,0.335 -0.198,0.715 -0.198,1.138c0,0.789 0.256,1.395 0.766,1.819c0.511,0.423 1.24,0.635 2.188,0.635c0.943,0 1.671,-0.213 2.184,-0.64c0.513,-0.426 0.769,-1.031 0.769,-1.815c0,-0.437 -0.068,-0.829 -0.202,-1.175c-0.135,-0.347 -0.343,-0.668 -0.626,-0.964l1.306,0Z" style="fill:#fff;fill-rule:nonzero;"/><path d="M22.309,88.722l0.611,0.068l-0.602,5.415l0.041,0.004c1.033,0.152 1.8,0.037 2.301,-0.345c0.501,-0.382 0.795,-0.968 0.883,-1.756c0.045,-0.398 0.027,-0.822 -0.051,-1.271c-0.078,-0.449 -0.219,-0.935 -0.422,-1.457l1.243,0.138c0.142,0.498 0.237,0.972 0.285,1.425c0.048,0.452 0.049,0.885 0.004,1.297c-0.132,1.182 -0.589,2.067 -1.372,2.653c-0.783,0.587 -1.797,0.812 -3.043,0.673c-1.214,-0.135 -2.147,-0.569 -2.799,-1.302c-0.652,-0.733 -0.918,-1.643 -0.797,-2.73c0.108,-0.969 0.522,-1.697 1.241,-2.183c0.719,-0.486 1.544,-0.696 2.477,-0.629Zm-0.506,1.209c-0.531,-0.004 -1.007,0.137 -1.426,0.423c-0.419,0.286 -0.663,0.737 -0.732,1.352c-0.067,0.603 0.077,1.121 0.433,1.555c0.355,0.434 0.779,0.697 1.274,0.788l0.451,-4.118Z" style="fill:#fff;fill-rule:nonzero;"/><path d="M23.785,80.394l4.626,1.052l-0.28,1.234l-4.626,-1.052c-0.671,-0.153 -1.191,-0.147 -1.561,0.016c-0.369,0.164 -0.61,0.497 -0.724,0.999c-0.131,0.574 -0.028,1.061 0.309,1.462c0.336,0.402 0.884,0.689 1.644,0.861l4.22,0.96l-0.279,1.226l-7.466,-1.697l0.279,-1.227l1.12,0.255c-0.377,-0.315 -0.634,-0.684 -0.769,-1.107c-0.135,-0.424 -0.144,-0.891 -0.028,-1.402c0.173,-0.76 0.552,-1.271 1.137,-1.532c0.586,-0.262 1.385,-0.278 2.398,-0.048Z" style="fill:#fff;fill-rule:nonzero;"/><path d="M20.783,73.043l2.055,0.711l0.934,-2.701l0.924,0.32l-0.934,2.7l3.927,1.359c0.534,0.185 0.942,0.213 1.223,0.084c0.281,-0.13 0.509,-0.447 0.683,-0.95l0.463,-1.338l0.95,0.329l-0.503,1.453c-0.309,0.892 -0.705,1.459 -1.189,1.701c-0.484,0.243 -1.164,0.213 -2.038,-0.09l-3.928,-1.359l-0.668,1.932l-0.924,-0.32l0.668,-1.932l-2.054,-0.711l0.411,-1.188Z" style="fill:#fff;fill-rule:nonzero;"/><path d="M29.509,62.439c-0.308,0.147 -0.567,0.324 -0.776,0.53c-0.21,0.206 -0.389,0.458 -0.538,0.755c-0.349,0.702 -0.397,1.348 -0.141,1.939c0.255,0.591 0.799,1.093 1.631,1.508l3.407,1.699l-0.564,1.132l-6.852,-3.416l0.565,-1.132l1.339,0.668c-0.391,-0.43 -0.62,-0.904 -0.684,-1.423c-0.065,-0.518 0.036,-1.045 0.302,-1.579c0.138,-0.277 0.302,-0.519 0.492,-0.725c0.189,-0.206 0.412,-0.382 0.668,-0.53l1.151,0.574Z" style="fill:#fff;fill-rule:nonzero;"/><path d="M34.437,58.547l-0.221,0.353c-0.39,0.622 -0.575,1.158 -0.554,1.61c0.021,0.451 0.248,0.812 0.68,1.084c0.39,0.244 0.767,0.316 1.131,0.217c0.364,-0.1 0.676,-0.359 0.938,-0.776c0.368,-0.587 0.454,-1.176 0.257,-1.767c-0.197,-0.591 -0.653,-1.114 -1.369,-1.568l-0.237,-0.149l-0.625,0.996Zm0.857,-2.344l3.7,2.321l-0.671,1.071l-0.962,-0.602c0.243,0.469 0.348,0.935 0.315,1.395c-0.033,0.461 -0.205,0.938 -0.515,1.432c-0.414,0.661 -0.931,1.071 -1.55,1.231c-0.62,0.16 -1.242,0.044 -1.868,-0.348c-0.722,-0.453 -1.118,-1.039 -1.189,-1.758c-0.07,-0.72 0.189,-1.549 0.777,-2.487l0.897,-1.43l-0.168,-0.106c-0.52,-0.32 -0.977,-0.424 -1.373,-0.312c-0.396,0.112 -0.772,0.452 -1.128,1.019c-0.227,0.363 -0.405,0.763 -0.534,1.199c-0.128,0.436 -0.202,0.892 -0.221,1.37l-1.066,-0.669c0.097,-0.488 0.22,-0.936 0.371,-1.344c0.152,-0.408 0.334,-0.782 0.547,-1.122c0.336,-0.537 0.703,-0.946 1.1,-1.227c0.396,-0.281 0.827,-0.44 1.291,-0.477c0.285,-0.025 0.589,0.02 0.912,0.136c0.322,0.116 0.767,0.352 1.335,0.708Z" style="fill:#fff;fill-rule:nonzero;"/><path d="M40.563,51.925c0.439,0.355 0.836,0.542 1.189,0.561c0.354,0.02 0.658,-0.129 0.913,-0.444l0.924,-1.143l0.824,0.666l-1.001,1.239c-0.472,0.584 -1.025,0.886 -1.659,0.905c-0.633,0.018 -1.293,-0.25 -1.981,-0.806l-5.386,-4.352l-1.268,1.569l-0.765,-0.619l2.058,-2.547l6.152,4.971Z" style="fill:#fff;fill-rule:nonzero;"/><path d="M41.076,43.938l2.293,-2.259l4.668,4.738l1.778,-1.751l0.686,0.696l-4.451,4.385l-0.686,-0.696l1.777,-1.752l-3.982,-4.041l-1.397,1.377l-0.686,-0.697Zm-0.69,-3.495l0.896,-0.883l1.113,1.13l-0.896,0.883l-1.113,-1.13Z" style="fill:#fff;fill-rule:nonzero;"/><path d="M47.296,37.996l4.345,-3.466l0.716,0.898l-0.009,7.038l3.436,-2.741l0.64,0.802l-4.473,3.567l-0.725,-0.908l0.005,-7.043l-3.308,2.638l-0.627,-0.785Z" style="fill:#fff;fill-rule:nonzero;"/><path d="M61.572,31.845l0.327,0.521l-4.612,2.9l0.022,0.035c0.524,0.903 1.092,1.431 1.703,1.585c0.611,0.154 1.252,0.02 1.924,-0.402c0.339,-0.213 0.66,-0.49 0.963,-0.831c0.302,-0.341 0.595,-0.754 0.877,-1.238l0.666,1.059c-0.301,0.421 -0.614,0.791 -0.938,1.11c-0.324,0.32 -0.661,0.59 -1.012,0.811c-1.007,0.633 -1.984,0.826 -2.931,0.578c-0.947,-0.247 -1.753,-0.901 -2.42,-1.962c-0.651,-1.034 -0.892,-2.034 -0.724,-3.001c0.167,-0.966 0.714,-1.741 1.64,-2.323c0.825,-0.519 1.652,-0.649 2.481,-0.389c0.828,0.26 1.506,0.776 2.034,1.547Zm-1.261,0.357c-0.328,-0.418 -0.734,-0.703 -1.219,-0.853c-0.485,-0.15 -0.989,-0.06 -1.514,0.27c-0.513,0.323 -0.829,0.758 -0.947,1.306c-0.119,0.548 -0.06,1.044 0.176,1.488l3.504,-2.211Z" style="fill:#fff;fill-rule:nonzero;"/><path d="M66.966,26.643l-1.73,-3.56l1.131,-0.55l4.649,9.567l-1.131,0.55l-0.422,-0.867c-0.023,0.432 -0.148,0.813 -0.375,1.144c-0.227,0.33 -0.545,0.595 -0.955,0.794c-0.832,0.405 -1.644,0.4 -2.435,-0.013c-0.791,-0.414 -1.463,-1.188 -2.015,-2.324c-0.543,-1.119 -0.73,-2.114 -0.56,-2.984c0.169,-0.871 0.668,-1.507 1.496,-1.909c0.414,-0.201 0.823,-0.29 1.225,-0.265c0.402,0.025 0.776,0.164 1.122,0.417Zm-2.078,4.186c0.426,0.877 0.887,1.472 1.383,1.783c0.496,0.311 1.017,0.334 1.562,0.07c0.545,-0.265 0.85,-0.692 0.916,-1.282c0.066,-0.589 -0.112,-1.318 -0.534,-2.187c-0.425,-0.873 -0.888,-1.465 -1.391,-1.775c-0.503,-0.311 -1.027,-0.334 -1.573,-0.069c-0.545,0.265 -0.848,0.689 -0.91,1.271c-0.061,0.582 0.121,1.312 0.547,2.189Z" style="fill:#fff;fill-rule:nonzero;"/></g><circle cx="200.9" cy="100.973" r="100" style="fill:#b3b3b3;stroke:#fff;stroke-width:1px;"/><g><path d="M189.206,19.374l0.209,1.213c-0.391,-0.146 -0.774,-0.239 -1.151,-0.281c-0.378,-0.041 -0.752,-0.03 -1.125,0.035c-0.562,0.096 -0.965,0.26 -1.21,0.489c-0.244,0.23 -0.335,0.531 -0.271,0.903c0.059,0.337 0.205,0.571 0.44,0.702c0.236,0.13 0.778,0.203 1.627,0.219l0.514,0.008c0.636,0.011 1.142,0.164 1.519,0.46c0.377,0.296 0.614,0.724 0.711,1.285c0.128,0.746 -0.036,1.374 -0.494,1.886c-0.458,0.511 -1.158,0.848 -2.101,1.01c-0.373,0.065 -0.77,0.093 -1.192,0.084c-0.423,-0.008 -0.885,-0.049 -1.389,-0.124l-0.22,-1.28c0.503,0.158 0.977,0.26 1.419,0.306c0.443,0.047 0.853,0.037 1.23,-0.028c0.548,-0.094 0.953,-0.278 1.216,-0.553c0.262,-0.274 0.359,-0.611 0.29,-1.01c-0.099,-0.575 -0.717,-0.878 -1.856,-0.908l-0.056,-0.005l-0.481,-0.014c-0.738,-0.016 -1.299,-0.161 -1.684,-0.434c-0.385,-0.274 -0.626,-0.696 -0.725,-1.266c-0.124,-0.723 0.024,-1.324 0.446,-1.801c0.422,-0.477 1.086,-0.794 1.994,-0.95c0.404,-0.07 0.799,-0.1 1.184,-0.09c0.386,0.01 0.771,0.058 1.156,0.144Z" style="fill:#fff;fill-rule:nonzero;"/><path d="M196.41,19.217c0.136,-0.337 0.318,-0.591 0.548,-0.762c0.229,-0.171 0.513,-0.266 0.849,-0.286c0.614,-0.036 1.062,0.177 1.342,0.637c0.281,0.461 0.459,1.348 0.537,2.663l0.26,4.429l-1.147,0.067l-0.257,-4.374c-0.063,-1.078 -0.163,-1.744 -0.299,-1.999c-0.135,-0.254 -0.363,-0.372 -0.681,-0.354c-0.364,0.022 -0.605,0.176 -0.723,0.464c-0.118,0.288 -0.146,0.952 -0.085,1.994l0.257,4.374l-1.146,0.068l-0.257,-4.375c-0.064,-1.091 -0.169,-1.761 -0.313,-2.008c-0.145,-0.247 -0.385,-0.361 -0.722,-0.341c-0.332,0.019 -0.555,0.173 -0.668,0.46c-0.113,0.288 -0.139,0.952 -0.078,1.994l0.257,4.374l-1.14,0.067l-0.449,-7.643l1.14,-0.067l0.038,0.655c0.134,-0.281 0.31,-0.501 0.527,-0.657c0.216,-0.157 0.468,-0.243 0.755,-0.26c0.346,-0.02 0.638,0.042 0.877,0.188c0.239,0.146 0.432,0.376 0.578,0.692Z" style="fill:#fff;fill-rule:nonzero;"/><path d="M203.416,23.242l2.403,0.114l-0.13,2.758l-2.403,-0.113l0.13,-2.759Z" style="fill:#fff;fill-rule:nonzero;"/><path d="M224.459,29.282c-0.378,0.096 -0.753,0.142 -1.124,0.138c-0.37,-0.004 -0.736,-0.057 -1.095,-0.16c-1.139,-0.325 -1.932,-0.921 -2.379,-1.788c-0.447,-0.867 -0.498,-1.905 -0.152,-3.115c0.345,-1.209 0.936,-2.064 1.774,-2.565c0.837,-0.5 1.825,-0.587 2.964,-0.262c0.355,0.101 0.688,0.246 0.999,0.435c0.312,0.188 0.611,0.427 0.897,0.718l-0.362,1.268c-0.238,-0.376 -0.501,-0.673 -0.786,-0.893c-0.286,-0.219 -0.633,-0.386 -1.04,-0.503c-0.759,-0.216 -1.411,-0.137 -1.959,0.237c-0.548,0.375 -0.952,1.018 -1.212,1.929c-0.259,0.907 -0.254,1.666 0.015,2.276c0.269,0.61 0.78,1.022 1.534,1.238c0.421,0.12 0.816,0.163 1.186,0.129c0.37,-0.035 0.736,-0.147 1.098,-0.337l-0.358,1.255Z" style="fill:#fff;fill-rule:nonzero;"/><path d="M231.972,25.319c-0.59,-0.243 -1.132,-0.197 -1.624,0.138c-0.492,0.334 -0.924,0.952 -1.295,1.854c-0.37,0.898 -0.498,1.64 -0.384,2.226c0.113,0.587 0.465,1.001 1.055,1.244c0.594,0.244 1.138,0.198 1.631,-0.138c0.494,-0.337 0.925,-0.954 1.294,-1.851c0.372,-0.902 0.5,-1.645 0.386,-2.23c-0.115,-0.584 -0.469,-0.998 -1.063,-1.243Zm0.406,-0.986c0.982,0.404 1.602,1.032 1.86,1.882c0.259,0.851 0.14,1.879 -0.356,3.084c-0.498,1.209 -1.136,2.025 -1.916,2.446c-0.779,0.42 -1.662,0.428 -2.648,0.022c-0.982,-0.404 -1.602,-1.03 -1.859,-1.878c-0.257,-0.847 -0.137,-1.876 0.361,-3.085c0.496,-1.205 1.134,-2.02 1.914,-2.443c0.781,-0.423 1.662,-0.432 2.644,-0.028Z" style="fill:#fff;fill-rule:nonzero;"/><path d="M241.888,32.507l-2.291,4.154l-1.107,-0.61l2.29,-4.155c0.333,-0.602 0.471,-1.104 0.416,-1.504c-0.055,-0.4 -0.309,-0.724 -0.76,-0.973c-0.514,-0.283 -1.011,-0.319 -1.49,-0.107c-0.479,0.212 -0.906,0.66 -1.282,1.342l-2.09,3.789l-1.101,-0.607l3.697,-6.705l1.101,0.608l-0.554,1.005c0.406,-0.275 0.832,-0.419 1.276,-0.432c0.444,-0.012 0.896,0.108 1.355,0.361c0.682,0.376 1.068,0.882 1.158,1.517c0.09,0.635 -0.117,1.407 -0.618,2.317Z" style="fill:#fff;fill-rule:nonzero;"/><path d="M249.768,31.641l-1.25,1.779l2.339,1.642l-0.562,0.8l-2.338,-1.642l-2.389,3.401c-0.325,0.463 -0.464,0.847 -0.417,1.153c0.047,0.305 0.288,0.612 0.725,0.918l1.158,0.813l-0.578,0.823l-1.258,-0.884c-0.772,-0.543 -1.208,-1.08 -1.308,-1.612c-0.099,-0.532 0.117,-1.177 0.648,-1.934l2.389,-3.401l-1.672,-1.175l0.561,-0.8l1.673,1.175l1.25,-1.779l1.029,0.723Z" style="fill:#fff;fill-rule:nonzero;"/><path d="M257.541,42.92c-0.057,-0.336 -0.156,-0.633 -0.297,-0.891c-0.14,-0.258 -0.334,-0.5 -0.579,-0.724c-0.579,-0.529 -1.188,-0.751 -1.826,-0.667c-0.638,0.084 -1.27,0.469 -1.897,1.156l-2.568,2.811l-0.934,-0.852l5.163,-5.654l0.934,0.852l-1.01,1.106c0.521,-0.259 1.039,-0.349 1.556,-0.269c0.516,0.08 0.995,0.321 1.436,0.723c0.229,0.209 0.416,0.433 0.563,0.672c0.146,0.238 0.255,0.501 0.326,0.788l-0.867,0.949Z" style="fill:#fff;fill-rule:nonzero;"/><path d="M259.938,48.724l-0.279,-0.309c-0.491,-0.545 -0.957,-0.869 -1.397,-0.972c-0.44,-0.104 -0.85,0.016 -1.229,0.358c-0.341,0.308 -0.514,0.651 -0.517,1.028c-0.003,0.378 0.16,0.749 0.49,1.114c0.464,0.515 1.007,0.758 1.629,0.73c0.623,-0.027 1.25,-0.323 1.883,-0.888l0.208,-0.188l-0.788,-0.873Zm2.021,1.464l-3.243,2.926l-0.848,-0.939l0.843,-0.76c-0.518,0.106 -0.995,0.08 -1.429,-0.078c-0.434,-0.158 -0.846,-0.453 -1.237,-0.886c-0.522,-0.579 -0.775,-1.188 -0.76,-1.828c0.015,-0.64 0.297,-1.207 0.845,-1.701c0.633,-0.571 1.305,-0.792 2.016,-0.664c0.711,0.129 1.438,0.604 2.18,1.426l1.131,1.254l0.147,-0.133c0.45,-0.412 0.676,-0.824 0.676,-1.236c0,-0.411 -0.224,-0.865 -0.673,-1.363c-0.287,-0.318 -0.623,-0.598 -1.007,-0.841c-0.384,-0.242 -0.804,-0.438 -1.257,-0.587l0.934,-0.842c0.443,0.226 0.84,0.467 1.192,0.724c0.351,0.257 0.661,0.534 0.93,0.832c0.424,0.47 0.717,0.935 0.879,1.393c0.162,0.459 0.198,0.916 0.106,1.373c-0.053,0.281 -0.179,0.561 -0.379,0.839c-0.2,0.279 -0.549,0.643 -1.046,1.091Z" style="fill:#fff;fill-rule:nonzero;"/><path d="M264.057,59.707c-0.355,-0.161 -0.676,-0.358 -0.964,-0.593c-0.287,-0.234 -0.539,-0.504 -0.756,-0.808c-0.688,-0.965 -0.936,-1.926 -0.744,-2.882c0.192,-0.956 0.8,-1.799 1.824,-2.529c1.024,-0.73 2.02,-1.029 2.986,-0.898c0.967,0.131 1.794,0.679 2.481,1.644c0.214,0.301 0.384,0.622 0.51,0.963c0.126,0.341 0.21,0.715 0.253,1.121l-1.074,0.765c0.048,-0.442 0.028,-0.839 -0.058,-1.188c-0.087,-0.35 -0.253,-0.697 -0.499,-1.042c-0.458,-0.642 -1.017,-0.988 -1.679,-1.037c-0.662,-0.049 -1.378,0.202 -2.15,0.752c-0.769,0.547 -1.238,1.143 -1.408,1.788c-0.171,0.644 -0.028,1.286 0.427,1.924c0.253,0.356 0.536,0.637 0.846,0.841c0.31,0.204 0.667,0.344 1.069,0.422l-1.064,0.757Z" style="fill:#fff;fill-rule:nonzero;"/><path d="M275.045,59.753l-1.896,1.064l1.398,2.492l-0.852,0.478l-1.398,-2.492l-3.625,2.033c-0.493,0.276 -0.785,0.562 -0.875,0.858c-0.09,0.297 -0.004,0.677 0.257,1.142l0.692,1.234l-0.877,0.492l-0.752,-1.342c-0.461,-0.822 -0.622,-1.495 -0.482,-2.018c0.141,-0.523 0.615,-1.011 1.421,-1.463l3.626,-2.033l-1,-1.783l0.852,-0.478l1,1.783l1.896,-1.064l0.615,1.097Z" style="fill:#fff;fill-rule:nonzero;"/><path d="M274.168,82.909c-0.282,-0.27 -0.519,-0.563 -0.713,-0.879c-0.193,-0.317 -0.341,-0.655 -0.445,-1.014c-0.328,-1.138 -0.243,-2.127 0.255,-2.965c0.498,-0.839 1.351,-1.432 2.559,-1.781c1.209,-0.349 2.247,-0.301 3.115,0.144c0.869,0.444 1.467,1.236 1.795,2.374c0.103,0.355 0.156,0.714 0.162,1.078c0.005,0.363 -0.039,0.744 -0.134,1.141l-1.267,0.365c0.192,-0.401 0.305,-0.781 0.34,-1.14c0.034,-0.358 -0.008,-0.741 -0.125,-1.148c-0.219,-0.758 -0.632,-1.27 -1.24,-1.535c-0.608,-0.266 -1.367,-0.268 -2.278,-0.005c-0.906,0.262 -1.547,0.668 -1.921,1.22c-0.375,0.551 -0.453,1.204 -0.236,1.957c0.121,0.42 0.294,0.778 0.519,1.073c0.226,0.296 0.515,0.547 0.869,0.753l-1.255,0.362Z" style="fill:#fff;fill-rule:nonzero;"/><path d="M281.511,87.17c-0.107,-0.629 -0.433,-1.064 -0.978,-1.304c-0.544,-0.24 -1.298,-0.278 -2.259,-0.114c-0.957,0.163 -1.654,0.448 -2.091,0.855c-0.436,0.408 -0.601,0.926 -0.494,1.555c0.108,0.633 0.435,1.07 0.982,1.309c0.547,0.24 1.299,0.278 2.256,0.115c0.962,-0.163 1.66,-0.449 2.094,-0.856c0.435,-0.406 0.598,-0.927 0.49,-1.56Zm1.052,-0.179c0.178,1.047 -0.025,1.905 -0.609,2.576c-0.584,0.67 -1.518,1.115 -2.803,1.333c-1.289,0.22 -2.319,0.111 -3.089,-0.326c-0.771,-0.438 -1.245,-1.182 -1.424,-2.233c-0.179,-1.047 0.023,-1.904 0.605,-2.572c0.582,-0.668 1.518,-1.112 2.807,-1.331c1.285,-0.219 2.314,-0.11 3.086,0.327c0.773,0.437 1.248,1.179 1.427,2.226Z" style="fill:#fff;fill-rule:nonzero;"/><path d="M282.668,96.712c0.337,0.136 0.59,0.319 0.76,0.55c0.171,0.23 0.265,0.513 0.284,0.85c0.034,0.614 -0.179,1.061 -0.64,1.34c-0.462,0.279 -1.35,0.455 -2.665,0.529l-4.43,0.248l-0.064,-1.147l4.375,-0.245c1.079,-0.06 1.745,-0.158 2,-0.293c0.255,-0.135 0.374,-0.362 0.356,-0.681c-0.021,-0.364 -0.174,-0.605 -0.462,-0.723c-0.287,-0.119 -0.952,-0.149 -1.994,-0.091l-4.375,0.245l-0.064,-1.147l4.375,-0.245c1.092,-0.061 1.762,-0.163 2.01,-0.307c0.247,-0.144 0.361,-0.384 0.343,-0.721c-0.019,-0.332 -0.172,-0.555 -0.459,-0.669c-0.287,-0.114 -0.951,-0.142 -1.993,-0.084l-4.375,0.245l-0.064,-1.14l7.644,-0.428l0.064,1.14l-0.655,0.037c0.281,0.135 0.5,0.311 0.656,0.528c0.156,0.217 0.242,0.469 0.258,0.756c0.019,0.346 -0.045,0.638 -0.191,0.877c-0.146,0.238 -0.378,0.43 -0.694,0.576Z" style="fill:#fff;fill-rule:nonzero;"/><path d="M276.846,103.494l-3.87,-0.221l0.072,-1.263l10.551,0.603l-0.072,1.263l-0.976,-0.056c0.366,0.231 0.638,0.526 0.816,0.885c0.178,0.36 0.254,0.767 0.228,1.222c-0.053,0.923 -0.451,1.627 -1.196,2.112c-0.744,0.485 -1.749,0.691 -3.014,0.619c-1.242,-0.071 -2.201,-0.391 -2.879,-0.959c-0.677,-0.568 -0.99,-1.312 -0.937,-2.231c0.026,-0.464 0.149,-0.864 0.366,-1.201c0.218,-0.337 0.522,-0.594 0.911,-0.773Zm2.642,3.848c0.974,0.056 1.717,-0.056 2.231,-0.334c0.513,-0.279 0.787,-0.721 0.822,-1.326c0.035,-0.61 -0.188,-1.086 -0.669,-1.429c-0.48,-0.342 -1.204,-0.541 -2.174,-0.596c-0.964,-0.055 -1.706,0.06 -2.224,0.345c-0.519,0.286 -0.795,0.733 -0.83,1.343c-0.035,0.605 0.187,1.075 0.666,1.411c0.478,0.335 1.204,0.531 2.178,0.586Z" style="fill:#fff;fill-rule:nonzero;"/><path d="M278.56,114.692l0.068,-0.411c0.121,-0.724 0.084,-1.29 -0.109,-1.699c-0.193,-0.408 -0.541,-0.654 -1.045,-0.738c-0.454,-0.076 -0.829,0.003 -1.127,0.235c-0.297,0.233 -0.486,0.592 -0.567,1.077c-0.113,0.683 0.034,1.26 0.444,1.73c0.409,0.47 1.031,0.777 1.867,0.92l0.276,0.046l0.193,-1.16Zm0.112,2.493l-4.309,-0.717l0.208,-1.247l1.119,0.186c-0.405,-0.34 -0.682,-0.729 -0.828,-1.167c-0.147,-0.438 -0.172,-0.944 -0.077,-1.52c0.128,-0.768 0.447,-1.346 0.957,-1.732c0.51,-0.387 1.13,-0.519 1.858,-0.398c0.84,0.139 1.432,0.528 1.774,1.164c0.342,0.637 0.423,1.502 0.241,2.594l-0.277,1.666l0.196,0.032c0.603,0.096 1.065,0.016 1.387,-0.24c0.323,-0.256 0.539,-0.715 0.648,-1.375c0.071,-0.423 0.081,-0.86 0.031,-1.312c-0.049,-0.452 -0.157,-0.902 -0.323,-1.35l1.241,0.207c0.099,0.488 0.158,0.949 0.175,1.384c0.018,0.435 -0.006,0.85 -0.072,1.246c-0.104,0.624 -0.284,1.143 -0.542,1.555c-0.258,0.412 -0.594,0.725 -1.009,0.938c-0.253,0.133 -0.551,0.208 -0.893,0.225c-0.342,0.017 -0.844,-0.029 -1.505,-0.139Z" style="fill:#fff;fill-rule:nonzero;"/><path d="M282.457,124.366l-2.092,-0.594l-0.78,2.749l-0.94,-0.267l0.78,-2.749l-3.998,-1.135c-0.544,-0.154 -0.952,-0.159 -1.226,-0.014c-0.273,0.146 -0.483,0.475 -0.628,0.988l-0.387,1.361l-0.966,-0.275l0.42,-1.479c0.257,-0.908 0.621,-1.496 1.091,-1.766c0.469,-0.269 1.149,-0.277 2.039,-0.025l3.998,1.135l0.559,-1.966l0.94,0.267l-0.558,1.966l2.091,0.594l-0.343,1.21Z" style="fill:#fff;fill-rule:nonzero;"/><path d="M278.049,130.713l-1.254,2.966l-6.126,-2.59l-0.972,2.298l-0.9,-0.381l2.433,-5.755l0.9,0.381l-0.971,2.298l5.226,2.21l0.764,-1.807l0.9,0.38Zm1.975,2.965l-0.49,1.159l-1.461,-0.618l0.49,-1.158l1.461,0.617Z" style="fill:#fff;fill-rule:nonzero;"/><path d="M268.884,140.903c0.851,0.475 1.57,0.698 2.154,0.67c0.585,-0.028 1.025,-0.307 1.321,-0.836c0.297,-0.534 0.305,-1.059 0.023,-1.577c-0.283,-0.518 -0.848,-1.013 -1.695,-1.487c-0.844,-0.47 -1.561,-0.691 -2.152,-0.661c-0.591,0.03 -1.036,0.312 -1.333,0.845c-0.296,0.53 -0.302,1.051 -0.019,1.563c0.282,0.513 0.849,1.007 1.701,1.483Zm4.298,-1.837c0.228,0.358 0.344,0.739 0.347,1.146c0.003,0.406 -0.109,0.812 -0.336,1.218c-0.449,0.803 -1.111,1.263 -1.988,1.379c-0.876,0.116 -1.857,-0.129 -2.944,-0.735c-1.102,-0.616 -1.837,-1.33 -2.205,-2.143c-0.368,-0.814 -0.326,-1.625 0.125,-2.432c0.222,-0.398 0.504,-0.701 0.848,-0.909c0.343,-0.208 0.73,-0.311 1.163,-0.309l-0.842,-0.47l0.613,-1.099l9.288,5.186l-0.614,1.098l-3.455,-1.93Z" style="fill:#fff;fill-rule:nonzero;"/><path d="M263.905,146.548c-0.458,-0.33 -0.865,-0.494 -1.219,-0.493c-0.354,0 -0.65,0.165 -0.886,0.494l-0.859,1.194l-0.86,-0.619l0.93,-1.293c0.439,-0.611 0.974,-0.943 1.606,-0.997c0.631,-0.054 1.305,0.177 2.023,0.693l5.622,4.044l1.177,-1.637l0.799,0.575l-1.912,2.658l-6.421,-4.619Z" style="fill:#fff;fill-rule:nonzero;"/><path d="M257.831,156.485l-0.459,-0.411l3.635,-4.058l-0.031,-0.028c-0.753,-0.723 -1.444,-1.075 -2.074,-1.055c-0.63,0.021 -1.21,0.326 -1.738,0.917c-0.268,0.299 -0.5,0.654 -0.697,1.065c-0.197,0.411 -0.364,0.888 -0.502,1.431l-0.932,-0.834c0.173,-0.488 0.372,-0.929 0.595,-1.326c0.223,-0.396 0.474,-0.749 0.75,-1.058c0.794,-0.886 1.68,-1.341 2.658,-1.364c0.978,-0.023 1.934,0.383 2.868,1.219c0.909,0.815 1.417,1.71 1.523,2.685c0.105,0.976 -0.207,1.871 -0.937,2.686c-0.65,0.726 -1.41,1.079 -2.277,1.057c-0.868,-0.021 -1.662,-0.33 -2.382,-0.926Zm1.114,-0.691c0.43,0.312 0.899,0.473 1.406,0.484c0.507,0.011 0.968,-0.215 1.381,-0.677c0.405,-0.451 0.588,-0.957 0.551,-1.516c-0.038,-0.56 -0.231,-1.02 -0.58,-1.382l-2.758,3.091Z" style="fill:#fff;fill-rule:nonzero;"/></g><circle cx="150.9" cy="186" r="100" style="fill:#b3b3b3;stroke:#fff;stroke-width:1px;"/><g><path d="M103.461,229.559l0.818,0.956l-1.211,1.035l-0.817,-0.956l1.21,-1.035Zm-0.518,-0.627l-0.795,0.68l-0.8,-0.935c-0.293,-0.343 -0.567,-0.521 -0.821,-0.535c-0.255,-0.013 -0.56,0.133 -0.917,0.438l-0.525,0.449l2.929,3.423l-5.808,4.968l-0.818,-0.956l5.075,-4.341l-2.11,-2.468l-5.076,4.341l-0.817,-0.955l5.075,-4.342l-0.893,-1.044l0.743,-0.635l0.893,1.044l0.405,-0.347c0.638,-0.545 1.232,-0.8 1.784,-0.765c0.551,0.035 1.092,0.363 1.622,0.983l0.854,0.997Z" style="fill:#fff;fill-rule:nonzero;"/><path d="M107.721,237.776l-4.5,0.829l-0.502,4.973l-1.069,-0.989l0.437,-3.775l-3.725,0.735l-1.069,-0.988l4.919,-0.889l0.475,-4.551l1.024,0.947l-0.389,3.411l3.36,-0.664l1.039,0.961Z" style="fill:#fff;fill-rule:nonzero;"/><path d="M111.922,244.889l-0.365,0.496l-4.389,-3.228l-0.024,0.033c-0.648,0.82 -0.931,1.542 -0.851,2.167c0.081,0.625 0.441,1.172 1.08,1.642c0.323,0.237 0.698,0.434 1.126,0.591c0.428,0.156 0.92,0.277 1.474,0.362l-0.741,1.008c-0.502,-0.126 -0.961,-0.281 -1.377,-0.465c-0.416,-0.185 -0.791,-0.399 -1.125,-0.645c-0.958,-0.705 -1.496,-1.543 -1.613,-2.514c-0.118,-0.972 0.195,-1.962 0.937,-2.972c0.724,-0.984 1.566,-1.575 2.527,-1.774c0.96,-0.199 1.881,0.026 2.762,0.674c0.786,0.578 1.21,1.299 1.272,2.165c0.062,0.866 -0.169,1.686 -0.693,2.46Zm-0.795,-1.042c0.269,-0.459 0.385,-0.941 0.347,-1.447c-0.038,-0.506 -0.307,-0.942 -0.806,-1.309c-0.489,-0.359 -1.009,-0.494 -1.563,-0.403c-0.553,0.091 -0.993,0.328 -1.319,0.71l3.341,2.449Z" style="fill:#fff;fill-rule:nonzero;"/><path d="M118.339,246.097l1.986,-3.424l1.088,0.631l-5.336,9.202l-1.088,-0.631l0.484,-0.834c-0.371,0.222 -0.757,0.331 -1.159,0.328c-0.401,-0.004 -0.798,-0.12 -1.192,-0.348c-0.801,-0.464 -1.251,-1.14 -1.35,-2.027c-0.099,-0.887 0.168,-1.877 0.801,-2.969c0.624,-1.076 1.345,-1.787 2.161,-2.133c0.817,-0.346 1.624,-0.287 2.42,0.174c0.398,0.231 0.699,0.52 0.903,0.868c0.205,0.347 0.299,0.735 0.282,1.163Zm-4.632,0.617c-0.49,0.843 -0.725,1.558 -0.706,2.143c0.019,0.585 0.291,1.03 0.815,1.334c0.524,0.304 1.049,0.319 1.575,0.044c0.525,-0.275 1.03,-0.83 1.515,-1.666c0.487,-0.84 0.718,-1.555 0.695,-2.146c-0.024,-0.59 -0.298,-1.038 -0.822,-1.342c-0.525,-0.304 -1.045,-0.318 -1.563,-0.044c-0.517,0.274 -1.02,0.833 -1.509,1.677Z" style="fill:#fff;fill-rule:nonzero;"/><path d="M131.38,251.283c0.244,-0.269 0.503,-0.443 0.778,-0.524c0.274,-0.081 0.573,-0.072 0.896,0.027c0.588,0.179 0.934,0.533 1.037,1.063c0.103,0.529 -0.038,1.424 -0.422,2.683l-1.294,4.244l-1.098,-0.335l1.278,-4.191c0.315,-1.033 0.453,-1.693 0.414,-1.979c-0.039,-0.286 -0.211,-0.475 -0.517,-0.568c-0.348,-0.106 -0.628,-0.045 -0.838,0.184c-0.211,0.229 -0.468,0.842 -0.772,1.84l-1.278,4.192l-1.099,-0.335l1.278,-4.192c0.319,-1.046 0.454,-1.71 0.404,-1.992c-0.05,-0.282 -0.236,-0.472 -0.559,-0.57c-0.318,-0.098 -0.58,-0.031 -0.786,0.199c-0.206,0.23 -0.461,0.845 -0.765,1.843l-1.279,4.191l-1.092,-0.333l2.234,-7.323l1.092,0.333l-0.192,0.628c0.224,-0.218 0.464,-0.363 0.722,-0.434c0.258,-0.072 0.524,-0.066 0.799,0.018c0.331,0.101 0.583,0.262 0.757,0.481c0.173,0.22 0.274,0.503 0.302,0.85Z" style="fill:#fff;fill-rule:nonzero;"/><path d="M138.401,253.082c-0.627,-0.116 -1.148,0.04 -1.561,0.469c-0.413,0.428 -0.708,1.122 -0.886,2.081c-0.177,0.955 -0.149,1.707 0.082,2.257c0.232,0.551 0.661,0.884 1.289,1.001c0.632,0.117 1.154,-0.04 1.568,-0.471c0.413,-0.431 0.709,-1.124 0.886,-2.078c0.177,-0.959 0.15,-1.713 -0.082,-2.261c-0.232,-0.548 -0.664,-0.881 -1.296,-0.998Zm0.194,-1.048c1.044,0.193 1.78,0.679 2.208,1.459c0.428,0.779 0.524,1.809 0.286,3.091c-0.238,1.286 -0.695,2.215 -1.371,2.787c-0.677,0.572 -1.539,0.761 -2.588,0.567c-1.044,-0.193 -1.779,-0.678 -2.205,-1.455c-0.426,-0.776 -0.52,-1.808 -0.282,-3.094c0.238,-1.281 0.695,-2.209 1.371,-2.784c0.677,-0.574 1.537,-0.765 2.581,-0.571Z" style="fill:#fff;fill-rule:nonzero;"/><path d="M148.83,256.286l-0.332,4.733l-1.261,-0.089l0.332,-4.732c0.048,-0.687 -0.037,-1.2 -0.255,-1.54c-0.218,-0.339 -0.584,-0.527 -1.098,-0.563c-0.587,-0.041 -1.052,0.135 -1.398,0.529c-0.345,0.393 -0.545,0.979 -0.599,1.756l-0.303,4.317l-1.255,-0.088l0.536,-7.638l1.255,0.089l-0.08,1.145c0.253,-0.421 0.578,-0.73 0.976,-0.928c0.398,-0.199 0.858,-0.279 1.381,-0.243c0.777,0.055 1.34,0.351 1.688,0.89c0.348,0.538 0.486,1.326 0.413,2.362Z" style="fill:#fff;fill-rule:nonzero;"/><path d="M157.202,256.347l0.025,0.615l-5.444,0.22l0.002,0.041c0.006,1.044 0.235,1.785 0.689,2.223c0.453,0.437 1.076,0.64 1.868,0.608c0.401,-0.016 0.817,-0.097 1.249,-0.242c0.432,-0.145 0.891,-0.357 1.377,-0.637l0.05,1.25c-0.47,0.215 -0.925,0.381 -1.365,0.496c-0.44,0.116 -0.867,0.183 -1.282,0.199c-1.188,0.048 -2.131,-0.27 -2.83,-0.956c-0.698,-0.685 -1.072,-1.654 -1.123,-2.907c-0.049,-1.22 0.239,-2.208 0.866,-2.963c0.626,-0.755 1.485,-1.154 2.578,-1.199c0.975,-0.039 1.756,0.26 2.345,0.897c0.59,0.638 0.921,1.423 0.995,2.355Zm-1.271,-0.318c-0.076,-0.526 -0.287,-0.975 -0.633,-1.346c-0.346,-0.372 -0.828,-0.545 -1.447,-0.52c-0.606,0.025 -1.097,0.245 -1.472,0.662c-0.375,0.416 -0.571,0.876 -0.587,1.378l4.139,-0.174Z" style="fill:#fff;fill-rule:nonzero;"/><path d="M163.606,257.446c-0.126,0.559 -0.282,1.293 -0.469,2.202c-0.262,1.258 -0.449,2.03 -0.562,2.315c-0.153,0.383 -0.371,0.687 -0.655,0.91c-0.283,0.224 -0.632,0.368 -1.047,0.432l-0.999,0.154l-0.161,-1.04l0.736,-0.114c0.365,-0.056 0.635,-0.206 0.809,-0.45c0.175,-0.244 0.353,-0.832 0.537,-1.764l-4.076,-6.992l1.317,-0.204l3.158,5.571l1.294,-6.259l1.317,-0.204l-1.199,5.443Z" style="fill:#fff;fill-rule:nonzero;"/><path d="M178.101,247.956l0.455,1.143c-0.412,-0.062 -0.807,-0.074 -1.185,-0.036c-0.377,0.037 -0.741,0.126 -1.093,0.266c-0.529,0.211 -0.89,0.453 -1.082,0.729c-0.192,0.275 -0.218,0.588 -0.078,0.94c0.126,0.317 0.318,0.515 0.575,0.595c0.257,0.079 0.803,0.038 1.637,-0.122l0.505,-0.099c0.624,-0.12 1.151,-0.075 1.581,0.136c0.43,0.212 0.75,0.582 0.961,1.111c0.28,0.703 0.249,1.352 -0.093,1.947c-0.342,0.594 -0.958,1.069 -1.847,1.423c-0.351,0.14 -0.734,0.25 -1.149,0.329c-0.415,0.079 -0.876,0.134 -1.384,0.165l-0.481,-1.207c0.526,0.051 1.01,0.053 1.453,0.007c0.442,-0.047 0.841,-0.141 1.197,-0.282c0.517,-0.206 0.875,-0.47 1.075,-0.793c0.2,-0.322 0.225,-0.672 0.075,-1.049c-0.215,-0.542 -0.883,-0.71 -2.003,-0.504l-0.056,0.007l-0.474,0.086c-0.725,0.137 -1.304,0.111 -1.737,-0.077c-0.433,-0.188 -0.757,-0.551 -0.971,-1.089c-0.271,-0.681 -0.25,-1.299 0.064,-1.854c0.314,-0.554 0.898,-1.001 1.754,-1.342c0.381,-0.152 0.761,-0.262 1.14,-0.333c0.379,-0.07 0.766,-0.102 1.161,-0.097Z" style="fill:#fff;fill-rule:nonzero;"/><path d="M182.315,250.972l-2.242,-4.181l1.108,-0.594l2.242,4.181c0.325,0.607 0.672,0.995 1.04,1.165c0.368,0.17 0.776,0.134 1.226,-0.107c0.522,-0.28 0.823,-0.678 0.903,-1.194c0.081,-0.516 -0.064,-1.118 -0.432,-1.805l-2.045,-3.813l1.115,-0.598l3.611,6.736l-1.114,0.597l-0.543,-1.012c0.012,0.495 -0.098,0.934 -0.329,1.317c-0.232,0.383 -0.575,0.696 -1.029,0.939c-0.69,0.371 -1.326,0.42 -1.905,0.15c-0.58,-0.271 -1.115,-0.865 -1.606,-1.781Z" style="fill:#fff;fill-rule:nonzero;"/><path d="M191.501,247.934l2.21,3.184l-1.039,0.721l-6.026,-8.682l1.039,-0.721l0.558,0.803c-0.044,-0.43 0.021,-0.826 0.194,-1.188c0.174,-0.362 0.448,-0.672 0.822,-0.932c0.76,-0.528 1.56,-0.648 2.401,-0.36c0.84,0.288 1.621,0.952 2.344,1.993c0.709,1.022 1.049,1.975 1.018,2.859c-0.03,0.883 -0.423,1.587 -1.179,2.112c-0.382,0.265 -0.773,0.416 -1.172,0.452c-0.4,0.036 -0.79,-0.045 -1.17,-0.241Zm1.403,-4.452c-0.556,-0.802 -1.102,-1.318 -1.638,-1.551c-0.536,-0.233 -1.053,-0.176 -1.551,0.169c-0.501,0.348 -0.739,0.817 -0.713,1.406c0.026,0.59 0.316,1.283 0.87,2.08c0.551,0.794 1.098,1.307 1.642,1.54c0.544,0.232 1.067,0.175 1.569,-0.174c0.498,-0.345 0.732,-0.81 0.701,-1.393c-0.03,-0.584 -0.324,-1.276 -0.88,-2.077Z" style="fill:#fff;fill-rule:nonzero;"/><path d="M198.181,242.987l2.551,2.918l-0.952,0.833l-6.956,-7.957l0.952,-0.832l0.643,0.736c-0.091,-0.423 -0.07,-0.824 0.062,-1.203c0.132,-0.378 0.369,-0.718 0.712,-1.018c0.697,-0.608 1.479,-0.817 2.346,-0.625c0.867,0.193 1.718,0.766 2.552,1.72c0.818,0.936 1.262,1.845 1.33,2.727c0.069,0.881 -0.243,1.625 -0.937,2.231c-0.349,0.306 -0.721,0.499 -1.114,0.579c-0.393,0.08 -0.789,0.044 -1.189,-0.109Zm0.898,-4.581c-0.642,-0.734 -1.242,-1.187 -1.8,-1.358c-0.559,-0.172 -1.066,-0.058 -1.523,0.341c-0.459,0.402 -0.643,0.894 -0.552,1.477c0.092,0.582 0.457,1.239 1.096,1.97c0.636,0.727 1.237,1.176 1.804,1.347c0.567,0.17 1.08,0.054 1.54,-0.348c0.456,-0.398 0.636,-0.886 0.541,-1.463c-0.095,-0.576 -0.464,-1.231 -1.106,-1.966Z" style="fill:#fff;fill-rule:nonzero;"/><path d="M204.533,234.363c0.418,0.38 0.803,0.59 1.155,0.63c0.352,0.04 0.664,-0.09 0.937,-0.39l0.989,-1.088l0.784,0.713l-1.072,1.179c-0.506,0.556 -1.075,0.825 -1.709,0.806c-0.633,-0.018 -1.276,-0.325 -1.93,-0.92l-5.123,-4.659l-1.357,1.491l-0.728,-0.662l2.203,-2.422l5.851,5.322Z" style="fill:#fff;fill-rule:nonzero;"/><path d="M210.433,227.463c0.307,0.484 0.716,1.114 1.228,1.888c0.706,1.074 1.119,1.752 1.241,2.033c0.164,0.379 0.224,0.748 0.182,1.107c-0.042,0.358 -0.187,0.707 -0.434,1.046l-0.597,0.816l-0.85,-0.621l0.44,-0.601c0.218,-0.298 0.302,-0.595 0.253,-0.891c-0.05,-0.295 -0.339,-0.837 -0.87,-1.626l-7.829,-2.054l0.787,-1.076l6.174,1.7l-3.516,-5.338l0.786,-1.076l3.005,4.693Z" style="fill:#fff;fill-rule:nonzero;"/></g></g><g id="venn-diagram1" serif:id="venn diagram"><g><path d="M150.897,14.401c29.467,17.038 49.429,48.683 49.962,85.005c-14.698,-8.536 -31.764,-13.406 -49.959,-13.406c-18.195,0 -35.261,4.87 -49.96,13.406c0.54,-36.322 20.5,-67.973 49.957,-85.005Z" style="fill:#d53d50;stroke:#fff;stroke-width:1px;"/><path d="M100.94,99.406l-0.04,1.567c0,36.975 20.11,69.289 49.999,86.571c-14.697,8.548 -31.783,13.429 -50,13.429c-18.195,0 -35.261,-4.869 -49.959,-13.405l-0.04,-1.568c0,-36.997 20.135,-69.328 50.04,-86.594Z" style="fill:#393b4a;stroke:#fff;stroke-width:1px;"/><path d="M195.496,96.512c32.835,16.379 55.404,50.318 55.404,89.488l-0.04,1.567c-14.699,8.537 -31.765,13.406 -49.96,13.406c-18.217,0 -35.303,-4.881 -50.001,-13.429c29.89,-17.282 50,-49.596 50,-86.571l-0.04,-1.567c-1.749,-1.016 -3.531,-1.98 -5.363,-2.894Z" style="fill:#ffd364;stroke:#fff;stroke-width:1px;"/><path d="M100.94,99.406" style="fill:#769c60;"/><path d="M155.475,86.116l1.112,0.056l4.483,0.341l0.255,0.03l4.196,0.534l1.129,0.171l4.268,0.763l0.597,0.131l3.662,0.846l1.278,0.326l3.91,1.112l1.145,0.373l2.829,0.958l1.645,0.597l2.86,1.129l0.567,0.227l1.896,0.831l1.613,0.73l2.278,1.088l0.298,0.153c1.832,0.914 3.614,1.878 5.363,2.894l0.04,1.567c0,36.975 -20.11,69.289 -50,86.571c-29.889,-17.282 -49.999,-49.596 -49.999,-86.571l0.04,-1.567l2.783,-1.557l2.589,-1.341l0.288,-0.148l2.282,-1.09l1.606,-0.726l1.901,-0.834l0.58,-0.232l2.845,-1.123l1.649,-0.598l2.823,-0.956l1.15,-0.376l3.907,-1.11l1.282,-0.327l3.658,-0.845l0.6,-0.132l4.267,-0.763l1.13,-0.171l4.194,-0.534l0.257,-0.03l4.482,-0.341l1.112,-0.056l4.575,-0.116l4.575,0.116Z" style="fill:#ff962c;stroke:#fff;stroke-width:1px;"/></g><g id="g2351"><g id="text4694"><g><path d="M196.942,143.439l1.906,0l1.039,6.703l0.945,-4.414l1.851,0l0.93,4.414l1.054,-6.703l1.906,0l-1.585,8.75l-2.172,0l-1.062,-4.547l-1.055,4.547l-2.171,0l-1.586,-8.75Z" style="fill:#393b4a;fill-rule:nonzero;"/><path d="M209.776,146.892l0,3.453l1.531,0c0.734,0 1.249,-0.125 1.543,-0.375c0.294,-0.25 0.441,-0.684 0.441,-1.304c0,-0.63 -0.154,-1.084 -0.461,-1.36c-0.307,-0.276 -0.815,-0.414 -1.523,-0.414l-1.531,0Zm0,-4.547l0,2.711l1.531,0c0.583,0 0.999,-0.104 1.246,-0.312c0.247,-0.208 0.371,-0.552 0.371,-1.031c0,-0.48 -0.126,-0.827 -0.379,-1.043c-0.252,-0.217 -0.665,-0.325 -1.238,-0.325l-1.531,0Zm-2.226,-1.836l3.757,0c1.297,0 2.272,0.247 2.925,0.739c0.654,0.492 0.981,1.228 0.981,2.207c0,0.75 -0.193,1.336 -0.578,1.758c-0.386,0.421 -0.951,0.666 -1.695,0.734c0.89,0.089 1.561,0.388 2.011,0.898c0.45,0.511 0.676,1.224 0.676,2.141c0,1.125 -0.339,1.94 -1.016,2.445c-0.677,0.506 -1.778,0.758 -3.304,0.758l-3.757,0l0,-11.68Z" style="fill:#393b4a;fill-rule:nonzero;"/><path d="M222.173,152.189l-2.305,0l0,-9.648l-2.96,0l0,-2.016l8.225,0l0,2.016l-2.96,0l0,9.648Z" style="fill:#393b4a;fill-rule:nonzero;"/><path d="M234.28,151.853c-0.364,0.188 -0.747,0.328 -1.148,0.422c-0.401,0.094 -0.823,0.141 -1.265,0.141c-1.573,0 -2.773,-0.519 -3.601,-1.555c-0.828,-1.036 -1.242,-2.534 -1.242,-4.492c0,-1.964 0.414,-3.464 1.242,-4.5c0.828,-1.037 2.028,-1.555 3.601,-1.555c0.442,0 0.867,0.047 1.273,0.141c0.406,0.094 0.786,0.234 1.14,0.422l0,2.562c-0.395,-0.364 -0.779,-0.631 -1.152,-0.801c-0.372,-0.169 -0.756,-0.254 -1.152,-0.254c-0.844,0 -1.48,0.335 -1.91,1.004c-0.43,0.67 -0.644,1.663 -0.644,2.981c0,1.312 0.214,2.303 0.644,2.973c0.43,0.669 1.066,1.003 1.91,1.003c0.396,0 0.78,-0.084 1.152,-0.253c0.373,-0.17 0.757,-0.437 1.152,-0.801l0,2.562Z" style="fill:#393b4a;fill-rule:nonzero;"/></g></g><g id="g2075"><g id="g2065"><path id="path1904" d="M215.61,156.873c-7.897,0 -14.317,6.422 -14.317,14.321c0,7.898 6.42,14.319 14.317,14.319c7.898,0 14.32,-6.421 14.32,-14.319c0,-7.899 -6.422,-14.321 -14.32,-14.321Zm0,1.688c6.986,0 12.631,5.646 12.631,12.633c0,6.986 -5.645,12.632 -12.631,12.632c-6.985,0 -12.629,-5.646 -12.629,-12.632c0,-6.987 5.644,-12.633 12.629,-12.633Z" style="fill:#393b4a;fill-rule:nonzero;"/><path id="circle1906" d="M214.767,159.388c-5.857,0.414 -10.546,5.105 -10.961,10.962l1.692,0c0.405,-4.942 4.328,-8.866 9.269,-9.271l0,-1.691Zm1.688,0l0,1.691c4.94,0.405 8.864,4.329 9.269,9.271l1.691,0c-0.415,-5.857 -5.104,-10.547 -10.96,-10.962Zm-12.649,12.65c0.414,5.857 5.104,10.547 10.961,10.962l0,-1.692c-4.941,-0.405 -8.864,-4.329 -9.269,-9.27l-1.692,0Zm21.918,0c-0.405,4.941 -4.329,8.865 -9.269,9.27l0,1.692c5.856,-0.415 10.545,-5.105 10.96,-10.962l-1.691,0Z" style="fill:#393b4a;fill-rule:nonzero;"/></g><path id="path2055" d="M220.181,170.36c0.973,-0.496 1.582,-1.369 1.44,-2.822c-0.192,-1.987 -1.908,-2.654 -4.076,-2.843l0,-2.756l-1.679,0l-0.001,2.683c-0.442,0 -0.892,0.009 -1.34,0.018l-0.001,-2.701l-1.678,0l0,2.755c-0.364,0.008 -0.721,0.015 -1.069,0.015l0,-0.009l-2.316,0l0,1.791c0,0 1.24,-0.023 1.219,-0.001c0.68,0.001 0.902,0.395 0.966,0.736l0.001,3.14l0,4.41c-0.03,0.214 -0.156,0.555 -0.632,0.556c0.022,0.019 -1.221,-0.001 -1.221,-0.001l-0.333,2.004l2.185,0c0.407,0 0.807,0.007 1.199,0.01l0.002,2.787l1.677,0l0,-2.758c0.461,0.01 0.907,0.014 1.342,0.013l-0.001,2.745l1.679,0l0.001,-2.782c2.823,-0.162 4.799,-0.873 5.045,-3.522c0.198,-2.132 -0.807,-3.084 -2.409,-3.468Zm-5.616,-3.748c0.947,0 3.925,-0.301 3.926,1.675c-0.001,1.896 -2.978,1.674 -3.926,1.674l0,-3.349Zm-0.001,8.733l0.001,-3.693c1.138,0 4.707,-0.327 4.707,1.846c0.001,2.084 -3.569,1.846 -4.708,1.847Z" style="fill:#393b4a;fill-rule:nonzero;"/></g></g><g id="g2266"><g id="text4706"><g><path d="M144.972,43.893l-7.265,0l0,-11.664l7.265,0l0,2.031l-4.96,0l0,2.515l4.491,0l0,2.032l-4.491,0l0,3.054l4.96,0l0,2.032Z" style="fill:#fff;fill-rule:nonzero;"/><path d="M151.994,43.893l-2.304,0l0,-9.649l-2.96,0l0,-2.015l8.225,0l0,2.015l-2.961,0l0,9.649Z" style="fill:#fff;fill-rule:nonzero;"/><path d="M156.728,32.229l2.305,0l0,4.445l2.882,0l0,-4.445l2.304,0l0,11.664l-2.304,0l0,-5.188l-2.882,0l0,5.188l-2.305,0l0,-11.664Z" style="fill:#fff;fill-rule:nonzero;"/></g></g><g id="g2116"><path id="polygon2104" d="M150.961,69.089l8.967,-5.301l-8.967,-14.88l-0.196,0.666l0,19.32l0.196,0.195Z" style="fill:#343434;fill-rule:nonzero;stroke:#fff;stroke-width:0.25px;stroke-linecap:butt;stroke-miterlimit:2;"/><path id="polygon2106" d="M150.961,69.089l0,-9.377l0,-10.804l-8.967,14.88l8.967,5.301Z" style="fill:#8c8c8c;fill-rule:nonzero;stroke:#fff;stroke-width:0.25px;stroke-linecap:butt;stroke-miterlimit:2;"/><path id="polygon2108" d="M150.961,78.126l8.972,-12.637l-8.972,5.298l-0.111,0.135l0,6.882l0.111,0.322Z" style="fill:#3c3c3b;fill-rule:nonzero;stroke:#fff;stroke-width:0.25px;stroke-linecap:butt;stroke-miterlimit:2;"/><path id="polygon2110" d="M141.994,65.489l8.967,12.637l0,-7.339l-8.967,-5.298Z" style="fill:#8c8c8c;fill-rule:nonzero;stroke:#fff;stroke-width:0.25px;stroke-linecap:butt;stroke-miterlimit:2;"/><path id="polygon2112" d="M150.961,59.712l0,9.377l8.967,-5.301l-8.967,-4.076Z" style="fill:#141414;fill-rule:nonzero;stroke:#fff;stroke-width:0.25px;stroke-linecap:butt;stroke-miterlimit:2;"/><path id="polygon2114" d="M150.961,59.712l-8.967,4.076l8.967,5.301l0,-9.377Z" style="fill:#393939;fill-rule:nonzero;stroke:#fff;stroke-width:0.25px;stroke-linecap:butt;stroke-miterlimit:2;"/></g></g><g id="g2370"><g id="g2170"><path id="path2152" d="M100.309,174.31c-1.923,7.715 -9.737,12.411 -17.453,10.487c-7.712,-1.924 -12.408,-9.739 -10.483,-17.454c1.922,-7.717 9.736,-12.413 17.449,-10.489c7.716,1.923 12.41,9.739 10.487,17.456Z" style="fill:#f7931a;fill-rule:nonzero;"/><path id="path2154" d="M92.69,168.774c0.287,-1.917 -1.172,-2.947 -3.167,-3.634l0.647,-2.596l-1.58,-0.394l-0.63,2.527c-0.416,-0.103 -0.842,-0.201 -1.266,-0.297l0.634,-2.545l-1.579,-0.394l-0.647,2.596c-0.344,-0.079 -0.682,-0.156 -1.009,-0.238l0.002,-0.008l-2.179,-0.544l-0.421,1.688c0,0 1.173,0.269 1.148,0.285c0.64,0.16 0.755,0.584 0.736,0.919l-0.737,2.958c0.044,0.011 0.101,0.027 0.164,0.053c-0.053,-0.014 -0.109,-0.028 -0.167,-0.042l-1.033,4.143c-0.078,0.195 -0.277,0.486 -0.724,0.375c0.016,0.023 -1.149,-0.286 -1.149,-0.286l-0.784,1.809l2.056,0.512c0.383,0.096 0.758,0.197 1.127,0.291l-0.654,2.626l1.578,0.394l0.647,-2.598c0.432,0.117 0.85,0.225 1.26,0.327l-0.646,2.585l1.58,0.394l0.654,-2.621c2.695,0.51 4.721,0.304 5.573,-2.133c0.688,-1.962 -0.034,-3.094 -1.451,-3.832c1.032,-0.238 1.81,-0.917 2.017,-2.32Zm-3.61,5.063c-0.488,1.962 -3.792,0.901 -4.863,0.635l0.868,-3.479c1.071,0.268 4.505,0.797 3.995,2.844Zm0.489,-5.092c-0.446,1.785 -3.196,0.878 -4.087,0.656l0.786,-3.155c0.892,0.222 3.765,0.637 3.301,2.499Z" style="fill:#fff;fill-rule:nonzero;"/></g><g id="text4676"><g><path d="M75.202,147.177l0,3.453l1.531,0c0.734,0 1.248,-0.125 1.542,-0.375c0.295,-0.25 0.442,-0.684 0.442,-1.304c0,-0.63 -0.154,-1.084 -0.461,-1.36c-0.307,-0.276 -0.815,-0.414 -1.523,-0.414l-1.531,0Zm0,-4.547l0,2.711l1.531,0c0.583,0 0.998,-0.104 1.246,-0.312c0.247,-0.208 0.371,-0.552 0.371,-1.031c0,-0.48 -0.127,-0.827 -0.379,-1.043c-0.253,-0.216 -0.666,-0.325 -1.238,-0.325l-1.531,0Zm-2.227,-1.835l3.758,0c1.296,0 2.271,0.246 2.925,0.738c0.654,0.492 0.98,1.228 0.98,2.207c0,0.75 -0.192,1.336 -0.578,1.758c-0.385,0.422 -0.95,0.666 -1.695,0.734c0.891,0.089 1.561,0.388 2.012,0.898c0.45,0.511 0.675,1.224 0.675,2.141c0,1.125 -0.338,1.94 -1.015,2.445c-0.677,0.506 -1.779,0.758 -3.304,0.758l-3.758,0l0,-11.679Z" style="fill:#fff;fill-rule:nonzero;"/><path d="M87.598,152.474l-2.304,0l0,-9.648l-2.961,0l0,-2.016l8.226,0l0,2.016l-2.961,0l0,9.648Z" style="fill:#fff;fill-rule:nonzero;"/><path d="M99.706,152.138c-0.364,0.188 -0.747,0.328 -1.148,0.422c-0.401,0.094 -0.823,0.141 -1.266,0.141c-1.572,0 -2.773,-0.518 -3.601,-1.555c-0.828,-1.036 -1.242,-2.534 -1.242,-4.492c0,-1.964 0.414,-3.464 1.242,-4.5c0.828,-1.037 2.029,-1.555 3.601,-1.555c0.443,0 0.867,0.047 1.274,0.141c0.406,0.094 0.786,0.234 1.14,0.422l0,2.562c-0.396,-0.364 -0.78,-0.631 -1.152,-0.801c-0.372,-0.169 -0.757,-0.253 -1.152,-0.253c-0.844,0 -1.481,0.334 -1.91,1.003c-0.43,0.67 -0.645,1.663 -0.645,2.981c0,1.312 0.215,2.303 0.645,2.973c0.429,0.669 1.066,1.003 1.91,1.003c0.395,0 0.78,-0.084 1.152,-0.253c0.372,-0.17 0.756,-0.437 1.152,-0.801l0,2.562Z" style="fill:#fff;fill-rule:nonzero;"/></g></g></g><g id="g2328"><g id="text4716"><g><path d="M121.187,110.866c0,-2.526 0.401,-4.418 1.201,-5.678c0.801,-1.26 2.005,-1.889 3.613,-1.889c1.615,0 2.822,0.628 3.623,1.884c0.8,1.257 1.201,3.151 1.201,5.683c0,2.526 -0.401,4.417 -1.201,5.673c-0.801,1.257 -2.008,1.885 -3.623,1.885c-1.608,0 -2.812,-0.63 -3.613,-1.89c-0.8,-1.259 -1.201,-3.149 -1.201,-5.668Zm3.359,3.896c0.306,0.814 0.791,1.221 1.455,1.221c0.671,0 1.159,-0.407 1.465,-1.221c0.306,-0.814 0.459,-2.112 0.459,-3.896c0,-0.677 -0.023,-1.282 -0.069,-1.816l-3.407,5.429c0.032,0.104 0.065,0.198 0.097,0.283Zm1.455,-9.022c-0.664,0 -1.149,0.407 -1.455,1.22c-0.306,0.814 -0.459,2.116 -0.459,3.906c0,0.553 0.013,1.058 0.039,1.514l3.359,-5.361c-0.006,-0.02 -0.013,-0.039 -0.019,-0.059c-0.306,-0.813 -0.794,-1.22 -1.465,-1.22Z" style="fill:#fff;fill-rule:nonzero;"/><path d="M143.206,107.204l-3.681,5.234l4.003,5.703l-3.339,0l-2.149,-3.682l-2.138,3.682l-3.339,0l4.042,-5.703l-3.72,-5.234l3.339,0l1.816,3.262l1.826,-3.262l3.34,0Z" style="fill:#fff;fill-rule:nonzero;"/><path d="M148.068,111.52l0,4.316l1.914,0c0.918,0 1.561,-0.156 1.929,-0.469c0.367,-0.312 0.551,-0.856 0.551,-1.63c0,-0.788 -0.192,-1.354 -0.576,-1.699c-0.384,-0.345 -1.019,-0.518 -1.904,-0.518l-1.914,0Zm0,-5.683l0,3.389l1.914,0c0.729,0 1.248,-0.131 1.558,-0.391c0.309,-0.26 0.463,-0.69 0.463,-1.289c0,-0.599 -0.157,-1.033 -0.473,-1.303c-0.316,-0.271 -0.832,-0.406 -1.548,-0.406l-1.914,0Zm-2.782,-2.294l4.696,0c1.621,0 2.84,0.307 3.657,0.922c0.817,0.616 1.225,1.535 1.225,2.759c0,0.937 -0.241,1.67 -0.722,2.197c-0.482,0.527 -1.188,0.833 -2.119,0.918c1.113,0.11 1.951,0.485 2.514,1.123c0.563,0.638 0.845,1.529 0.845,2.675c0,1.406 -0.423,2.425 -1.27,3.056c-0.846,0.632 -2.223,0.948 -4.13,0.948l-4.696,0l0,-14.598Z" style="fill:#fff;fill-rule:nonzero;"/><path d="M163.564,118.141l-2.88,0l0,-12.06l-3.701,0l0,-2.519l10.282,0l0,2.519l-3.701,0l0,12.06Z" style="fill:#fff;fill-rule:nonzero;"/><path d="M178.699,117.721c-0.456,0.234 -0.934,0.41 -1.435,0.527c-0.502,0.117 -1.029,0.176 -1.582,0.176c-1.966,0 -3.467,-0.648 -4.502,-1.943c-1.035,-1.296 -1.552,-3.167 -1.552,-5.615c0,-2.454 0.517,-4.329 1.552,-5.624c1.035,-1.296 2.536,-1.943 4.502,-1.943c0.553,0 1.084,0.058 1.591,0.175c0.508,0.118 0.983,0.293 1.426,0.528l0,3.202c-0.495,-0.455 -0.975,-0.789 -1.44,-1c-0.466,-0.212 -0.946,-0.318 -1.441,-0.318c-1.054,0 -1.85,0.418 -2.387,1.255c-0.537,0.836 -0.805,2.078 -0.805,3.725c0,1.64 0.268,2.879 0.805,3.715c0.537,0.837 1.333,1.255 2.387,1.255c0.495,0 0.975,-0.106 1.441,-0.317c0.465,-0.212 0.945,-0.545 1.44,-1.001l0,3.203Z" style="fill:#fff;fill-rule:nonzero;"/></g></g><g id="logo"><path id="ellipse2223" d="M149.916,123.502c9.876,-0.014 17.906,7.991 17.921,17.867c0.015,9.876 -7.991,17.906 -17.867,17.921c-9.876,0.014 -17.906,-7.991 -17.921,-17.867c-0.014,-9.876 7.991,-17.906 17.867,-17.921Z" style="fill:#fff;"/><g id="diamond"><path id="diamond-0" serif:id="diamond 0" d="M148.456,153.785c0.542,-0.433 2.119,-1.953 3.512,-3.362c4.152,-4.239 6.037,-6.673 6.035,-7.796c-0.002,-0.999 -1.701,-6.883 -2.766,-9.609c-0.88,-2.207 -1.895,-4.39 -2.155,-4.575c-0.654,-0.492 -1.838,0.25 -4.179,2.61c-4.387,4.412 -6.949,7.773 -6.947,9.093c0.003,1.666 2.408,9.166 4.03,12.532c0.644,1.357 1.027,1.899 1.336,1.899c0.086,0 0.604,-0.359 1.134,-0.792Z" style="fill:#ff8024;fill-rule:nonzero;"/><path id="path2228" d="M146.996,151.764c-0.716,-0.789 -2.959,-6.771 -3.778,-10.077c-0.348,-1.394 -0.435,-1.974 -0.337,-2.406c0.331,-1.494 8.006,-9.761 9.068,-9.762c0.358,-0.001 0.815,0.726 1.546,2.478c1.548,3.724 2.925,8.239 2.951,9.621c0.014,0.79 -0.011,0.864 -0.565,1.679c-0.96,1.408 -2.5,3.188 -4.718,5.462c-2.095,2.15 -3.352,3.225 -3.759,3.226c-0.111,0 -0.296,-0.098 -0.408,-0.221Z" style="fill:#f4ab6c;fill-rule:nonzero;"/><path id="path2231" d="M152.128,142.414c-1.345,-0.232 -2.209,-0.527 -2.469,-0.811c-0.568,-0.628 -0.264,-3.232 0.804,-6.776c0.553,-1.802 1.192,-3.457 1.353,-3.457c0.049,0 0.42,0.357 0.828,0.788c1.285,1.368 2.523,4.143 2.959,6.66c0.374,2.159 -0.141,3.399 -1.673,3.643c-0.212,0.034 -0.641,0.154 -1.802,-0.047Z" style="fill:#f6d5ba;fill-rule:nonzero;"/></g></g></g></g></g></svg>