<?xml version="1.0" encoding="UTF-8"?>
<svg width="135.2" height="135.2" version="1.1" viewBox="0 0 135.2 135.2" xmlns="http://www.w3.org/2000/svg" xmlns:xlink="http://www.w3.org/1999/xlink">
 <defs>
  <linearGradient id="linearGradient8830" x1="49.073" x2="51.94" y1="77.128" y2="41.258" gradientUnits="userSpaceOnUse" xlink:href="#linearGradient867"/>
  <linearGradient id="linearGradient867">
   <stop stop-color="#7307ab" offset="0"/>
   <stop stop-color="#ddaefc" stop-opacity=".99216" offset="1"/>
  </linearGradient>
  <linearGradient id="linearGradient8832" x1="61.869" x2="81.473" y1="25.291" y2="76.795" gradientUnits="userSpaceOnUse">
   <stop stop-color="#7307ab" offset="0"/>
   <stop stop-color="#faf3ff" stop-opacity="0" offset="1"/>
  </linearGradient>
  <linearGradient id="linearGradient8452" x1="91.257" x2="70.57" y1="75.207" y2="99.092" gradientUnits="userSpaceOnUse" xlink:href="#linearGradient867"/>
  <radialGradient id="radialGradient9491" cx="43.331" cy="51.628" r="17.001" gradientTransform="matrix(.45824 -2.0634 .94446 -.015817 -11.622 118.53)" gradientUnits="userSpaceOnUse" xlink:href="#linearGradient8621"/>
  <linearGradient id="linearGradient8621">
   <stop stop-color="#fff" offset="0"/>
   <stop stop-color="#fff" stop-opacity="0" offset="1"/>
  </linearGradient>
  <radialGradient id="radialGradient8836" cx="43.331" cy="51.628" r="17.001" gradientTransform="matrix(2.0853 1.763 -1.5829 1.1138 73.852 -96.712)" gradientUnits="userSpaceOnUse" xlink:href="#linearGradient8621"/>
 </defs>
 <title>0xchange</title>
 <desc>Created with Sketch.</desc>
 <g transform="matrix(1.4764 0 0 1.4764 -15.82 -7.6994)">
  <circle transform="translate(-.096281 -.75716)" cx="56.596" cy="51.757" r="45.785" fill="#fff" opacity=".94" style="paint-order:normal"/>
  <g>
   <path transform="translate(-17.75 -.99658)" d="m74.166 8.3359c-24.109 1.115e-4 -43.653 19.545-43.652 43.654 8.7e-5 18.825 11.916 34.867 28.617 40.994 4.2967 1.5764 9.7517 2.6584 15.035 2.6584 24.108-1.12e-4 43.652-19.544 43.652-43.652 9.7e-4 -24.109-19.543-43.654-43.652-43.654zm-0.10938 7.9941c3.2823-0.04308 6.6289 0.38622 9.9609 1.3477 7.3733 2.1275 12.074 4.6459 17.607 10.613 14.381 19.369 10.159 43.465-12.094 56.334-8.9362 3.0391-16.248 4.6741-25.472 1.8866-15.691-5.0254-25.947-20.633-25.006-37.002 1.0808-18.806 17.279-32.947 35.004-33.18z" fill="url(#linearGradient8830)" stroke="#7307ab" stroke-opacity=".4549" stroke-width=".42331" style="paint-order:stroke fill markers"/>
   <path transform="translate(-.084048 -.91007)" d="m56.5 8.25c-23.211-0.64287-43.371 21.824-35.625 26.625 4.2541 1.9403 7.6339-4.6768 7.1367-3.7109 3.1584-4.4677 7.476-8.3128 12.992-11.078 7.6481-3.834 17.42-4.599 24.498-2.6426 11.642 3.2178 20.137 9.3537 25.018 23.256 1.3805 3.9327 1.8088 8.9156 1.418 13.855h8.127c0.0526-0.87759 0.0879-1.7596 0.0879-2.6504 9.5e-4 -24.109-19.543-43.654-43.652-43.654z" fill="url(#linearGradient8832)" stroke-width="1.178" style="paint-order:stroke fill markers"/>
   <path transform="translate(-.084048 -.91007)" d="m96.016 47.532c-3.4039-0.0281-4.0259 5.8915-4.0259 5.8915-0.29455 5.4635-1.9966 11.923-5.1934 17.201-4.4323 7.3176-12.295 13.168-19.328 15.281-4.9314 1.4815-9.656 2.2052-14.352 1.8477 1.4238 0.73796 2.709 1.9363 2.6914 3.8906-0.32131 2.3485-2.509 3.4411-5.7168 3.4199 10.026 1.5534 20.684-0.19982 29.946-6.0263 19.348-11.299 24.716-42.332 15.979-41.506z" fill="url(#linearGradient8452)" stroke-width="1.178" style="paint-order:stroke fill markers"/>
  </g>
  <g>
   <path d="m61.43 24.47c-1.694 0-13.355 11.356-18.834 17.966-1.2271 1.4802-2.1442 2.7225-2.5701 3.546-1.9897 3.8477-1.1315 8.7924 3.6172 20.855 3.3552 8.5231 5.5763 12.199 7.3711 12.199 0.70794 0 5.4134-4.3602 10.457-9.6895 12.281-12.977 12.449-13.341 10.043-21.947-4.2102-15.062-7.4536-22.321-9.7882-22.893-0.10028-0.02459-0.19889-0.03683-0.29583-0.03683z" fill="#040000" stroke="#000" stroke-linejoin="round" stroke-width="1.178" style="paint-order:normal"/>
   <path d="m61.422 24.479c-0.02888 0-0.24668 0.14976-0.40234 0.4336-3.4744 6.2745-34.531 57.737 3.8242 39.992 0.52485-0.24505 0.89379-0.42634 1.3887-0.6582 7.423-8.1085 7.3163-9.5651 5.2812-16.846-4.391-15.709-7.7383-22.922-10.092-22.922zm4.8105 39.768c16.309-7.6414 16.724-8.4968 16.508-23.09 0.21643 14.593-0.19856 15.448-16.508 23.09z" fill="url(#radialGradient9491)" opacity=".297" style="paint-order:normal"/>
   <path d="m61.432 24.482c-2.4244 4.8228-2.3123 13.133 0.13672 28.639 0.85764 5.4299 1.7488 9.7714 2.7051 13.244 9.3738-10.008 9.4382-11.101 7.2402-18.965-1.5074-4.1137-6.5152-23.233-10.082-22.918z" fill="url(#radialGradient8836)" opacity=".419" style="paint-order:normal"/>
  </g>
 </g>
</svg>
