<?xml version="1.0" encoding="UTF-8" standalone="no"?><!DOCTYPE svg PUBLIC "-//W3C//DTD SVG 1.1//EN" "http://www.w3.org/Graphics/SVG/1.1/DTD/svg11.dtd"><svg width="100%" height="100%" viewBox="0 0 126 170" version="1.1" xmlns="http://www.w3.org/2000/svg" xmlns:xlink="http://www.w3.org/1999/xlink" xml:space="preserve" xmlns:serif="http://www.serif.com/" style="fill-rule:evenodd;clip-rule:evenodd;stroke-linecap:round;stroke-linejoin:round;stroke-miterlimit:1.5;"><g><g><path d="M60.938,9.92l-46.161,26.651l0,102.324l41.736,20.134l50.37,-29.081l0,-28.198l-13.885,-8.016l-13.64,-61.339l-18.42,-22.475Z" style="fill:#808080;"/><path d="M44.923,0.674l-44.153,22.878l0,112.426l55.424,33.044l56.063,-32.368l0,-32.368l-14.786,-8.537l-3.931,2.27l10.494,6.059l-47.709,27.545l-24.006,-13.86l0,-68.52l-3.396,-5.984l0,-3.453l41.111,-24.634l-25.111,-14.498Z" style="fill:#b3b3b3;stroke:#808080;stroke-width:1px;"/><path d="M0.77,23.552l27.207,15.708l0.755,80.573l27.029,15.605l0,33.334l-54.991,-32.794l0,-112.426Z" style="fill:#d3d3d3;"/><g><path d="M106.883,112.866l-45.945,26.526l0,22.192l45.945,-25.57l0,-23.148Z" style="fill:#fff;stroke:#fff;stroke-width:1px;"/><path d="M71.335,149.046l-0.096,1.841c-0.01,0.238 -0.063,0.411 -0.158,0.519c-0.095,0.109 -0.249,0.163 -0.46,0.163c-0.175,0 -0.302,-0.051 -0.381,-0.151c-0.079,-0.1 -0.119,-0.262 -0.119,-0.484l0,-0.143l0.095,-1.792c-0.216,-0.037 -0.425,-0.099 -0.626,-0.187c-0.201,-0.087 -0.405,-0.202 -0.611,-0.345c-0.074,0.122 -0.156,0.212 -0.246,0.27c-0.09,0.058 -0.195,0.087 -0.317,0.087c-0.211,0 -0.378,-0.07 -0.5,-0.21c-0.121,-0.14 -0.182,-0.332 -0.182,-0.575l0,-1.103c0,-0.19 0.06,-0.346 0.178,-0.467c0.119,-0.122 0.277,-0.183 0.472,-0.183c0.307,0 0.529,0.206 0.667,0.619c0.037,0.127 0.068,0.214 0.095,0.262c0.111,0.195 0.371,0.374 0.781,0.535c0.41,0.161 0.831,0.242 1.265,0.242c0.497,0 0.897,-0.116 1.201,-0.349c0.304,-0.233 0.456,-0.534 0.456,-0.904c0,-0.328 -0.108,-0.597 -0.325,-0.805c-0.217,-0.209 -0.698,-0.443 -1.443,-0.702l-1.388,-0.468c-0.534,-0.186 -0.96,-0.488 -1.277,-0.909c-0.317,-0.42 -0.476,-0.892 -0.476,-1.415c0,-0.683 0.237,-1.233 0.71,-1.65c0.473,-0.418 1.13,-0.659 1.971,-0.722l0.032,-0.603c0.015,-0.217 0.074,-0.379 0.174,-0.488c0.1,-0.108 0.238,-0.162 0.412,-0.162c0.18,0 0.318,0.049 0.413,0.146c0.095,0.098 0.143,0.24 0.143,0.425l0,0.095l-0.048,0.634c0.196,0.053 0.387,0.113 0.575,0.179c0.188,0.066 0.369,0.141 0.543,0.226c0.08,-0.095 0.159,-0.165 0.238,-0.21c0.079,-0.045 0.167,-0.068 0.262,-0.068c0.18,0 0.309,0.049 0.389,0.147c0.079,0.098 0.118,0.266 0.118,0.504l0,0.975c0,0.196 -0.047,0.345 -0.142,0.449c-0.095,0.103 -0.233,0.154 -0.413,0.154c-0.264,0 -0.47,-0.164 -0.618,-0.492c-0.032,-0.084 -0.058,-0.148 -0.08,-0.19c-0.105,-0.211 -0.301,-0.378 -0.586,-0.5c-0.286,-0.121 -0.622,-0.182 -1.008,-0.182c-0.534,0 -0.962,0.114 -1.284,0.341c-0.323,0.227 -0.484,0.529 -0.484,0.904c0,0.302 0.1,0.562 0.301,0.782c0.201,0.219 0.497,0.392 0.888,0.519l1.523,0.508c0.772,0.248 1.339,0.575 1.701,0.979c0.362,0.405 0.543,0.911 0.543,1.519c0,0.693 -0.257,1.259 -0.773,1.698c-0.515,0.439 -1.217,0.684 -2.105,0.737Z" style="fill:#b75e03;fill-rule:nonzero;"/><path d="M87.335,135.317l0,0.619c0,0.095 -0.039,0.181 -0.119,0.258c-0.079,0.077 -0.169,0.115 -0.269,0.115l-3.284,0c-0.021,0.206 -0.031,0.423 -0.031,0.65c0,0.17 0.005,0.331 0.015,0.484l3.292,0c0.116,0 0.21,0.029 0.281,0.087c0.072,0.059 0.107,0.138 0.107,0.238l0,0.619c0,0.095 -0.039,0.181 -0.119,0.258c-0.079,0.077 -0.169,0.115 -0.269,0.115l-3.006,0c0.137,0.359 0.322,0.679 0.555,0.96c0.576,0.682 1.335,1.023 2.276,1.023c0.307,0 0.619,-0.044 0.936,-0.131c0.317,-0.087 0.629,-0.218 0.936,-0.393c0.143,-0.074 0.338,-0.199 0.587,-0.376c0.248,-0.178 0.425,-0.266 0.531,-0.266c0.164,0 0.303,0.054 0.417,0.162c0.113,0.109 0.17,0.242 0.17,0.401c0,0.159 -0.062,0.311 -0.186,0.456c-0.125,0.145 -0.356,0.324 -0.694,0.535c-0.444,0.291 -0.891,0.505 -1.341,0.643c-0.449,0.137 -0.922,0.206 -1.419,0.206c-1.306,0 -2.385,-0.46 -3.236,-1.38c-0.486,-0.529 -0.835,-1.142 -1.047,-1.84l-1.372,0c-0.106,0 -0.189,-0.033 -0.25,-0.099c-0.06,-0.066 -0.091,-0.158 -0.091,-0.274l0,-0.619c0,-0.095 0.032,-0.173 0.095,-0.234c0.064,-0.06 0.146,-0.091 0.246,-0.091l1.15,0c-0.005,-0.127 -0.008,-0.256 -0.008,-0.389c0,-0.253 0.013,-0.502 0.04,-0.745l-1.174,0c-0.106,0 -0.189,-0.033 -0.25,-0.099c-0.061,-0.066 -0.091,-0.158 -0.091,-0.274l0,-0.619c0,-0.095 0.032,-0.173 0.095,-0.234c0.064,-0.06 0.146,-0.091 0.246,-0.091l1.499,0c0.212,-0.544 0.521,-1.039 0.928,-1.483c0.862,-0.941 1.946,-1.412 3.252,-1.412c0.349,0 0.704,0.042 1.066,0.127c0.362,0.085 0.744,0.211 1.146,0.381c0.053,-0.143 0.127,-0.244 0.222,-0.302c0.095,-0.058 0.233,-0.087 0.413,-0.087c0.195,0 0.333,0.048 0.412,0.143c0.079,0.095 0.119,0.291 0.119,0.587c0,0.518 0.005,1.002 0.016,1.451c0.011,0.392 0.016,0.59 0.016,0.595c-0.005,0.243 -0.048,0.407 -0.127,0.492c-0.085,0.085 -0.235,0.127 -0.452,0.127c-0.349,0 -0.576,-0.249 -0.682,-0.746c-0.037,-0.148 -0.066,-0.261 -0.087,-0.341c-0.101,-0.396 -0.341,-0.72 -0.722,-0.971c-0.381,-0.252 -0.828,-0.377 -1.34,-0.377c-0.936,0 -1.687,0.344 -2.253,1.031c-0.195,0.233 -0.357,0.494 -0.484,0.785l2.951,0c0.116,0 0.21,0.029 0.281,0.087c0.072,0.059 0.107,0.138 0.107,0.238Z" style="fill:#b75e03;fill-rule:nonzero;"/><path d="M100.898,133.091c0.407,0 0.668,0.038 0.781,0.115c0.114,0.077 0.171,0.221 0.171,0.432c0,0.217 -0.057,0.367 -0.171,0.448c-0.113,0.082 -0.342,0.123 -0.686,0.123l-3.767,0c-0.343,0 -0.571,-0.041 -0.682,-0.123c-0.111,-0.081 -0.166,-0.231 -0.166,-0.448c0,-0.211 0.062,-0.355 0.186,-0.432c0.124,-0.077 0.382,-0.115 0.773,-0.115l1.19,0l0,-2.602l-2.895,0c-0.285,0 -0.476,-0.03 -0.571,-0.091c-0.095,-0.061 -0.143,-0.165 -0.143,-0.313c0,-0.154 0.055,-0.262 0.163,-0.325c0.108,-0.064 0.292,-0.096 0.551,-0.096l2.419,0l-0.825,-1.364l-1.594,0c-0.285,0 -0.476,-0.03 -0.571,-0.091c-0.095,-0.061 -0.143,-0.168 -0.143,-0.321c0,-0.148 0.055,-0.255 0.163,-0.322c0.108,-0.066 0.292,-0.099 0.551,-0.099l1.15,0l-0.888,-1.523l-0.151,0c-0.328,0 -0.552,-0.042 -0.674,-0.127c-0.121,-0.084 -0.182,-0.232 -0.182,-0.444c0,-0.195 0.049,-0.339 0.146,-0.432c0.098,-0.093 0.25,-0.139 0.456,-0.139l2.174,0c0.311,0 0.522,0.043 0.63,0.127c0.108,0.085 0.163,0.233 0.163,0.444c0,0.212 -0.068,0.36 -0.203,0.444c-0.134,0.085 -0.392,0.127 -0.773,0.127l-0.341,0l2.07,3.633l2.157,-3.633l-0.42,0c-0.328,0 -0.551,-0.041 -0.67,-0.123c-0.119,-0.082 -0.179,-0.226 -0.179,-0.432c0,-0.227 0.049,-0.382 0.147,-0.464c0.098,-0.082 0.342,-0.123 0.734,-0.123l1.459,0c0.402,0 0.659,0.041 0.773,0.123c0.114,0.082 0.171,0.231 0.171,0.448c0,0.212 -0.057,0.36 -0.171,0.444c-0.114,0.085 -0.329,0.127 -0.646,0.127l-0.127,0l-0.912,1.523l1.023,0c0.259,0 0.444,0.033 0.555,0.099c0.111,0.067 0.167,0.174 0.167,0.322c0,0.148 -0.051,0.254 -0.151,0.317c-0.101,0.063 -0.291,0.095 -0.571,0.095l-1.507,0l-0.849,1.364l2.356,0c0.254,0 0.437,0.035 0.551,0.104c0.114,0.068 0.171,0.179 0.171,0.333c0,0.142 -0.049,0.243 -0.147,0.301c-0.098,0.058 -0.29,0.087 -0.575,0.087l-2.839,0l0,2.602l1.189,0Z" style="fill:#b75e03;fill-rule:nonzero;"/></g><g><path d="M112.257,104.286l0,32.368l-56.063,32.368l0,-33.334" style="fill:none;stroke:#fff;stroke-width:1px;"/><path d="M70.034,15.172l-25.008,-14.438l-44.256,22.818l0,112.733l55.424,32.737" style="fill:none;stroke:#fff;stroke-width:1px;"/><path d="M0.77,23.552l27.207,15.708" style="fill:none;stroke:#fff;stroke-width:1.3px;"/><path d="M32.319,49.243l0,68.52l24.006,13.86l47.709,-27.545l-9.882,-5.706" style="fill:none;stroke:#fff;stroke-width:1px;"/><path d="M98.393,96.281l13.864,8.005l-56.063,31.402l-27.462,-15.855l0,-79.962" style="fill:none;stroke:#fff;stroke-width:1px;"/><g><path d="M69.712,14.986l-41.8,24.134l0,2.256l40.707,71.738c8.55,0.551 15.187,-2.788 19.347,-11.17l25.422,-14.678c6.284,1.784 9.864,-1.35 12.078,-6.973l0,-16.309l-55.754,-48.998Z" style="fill:#fff;stroke:#ff962c;stroke-width:1px;"/><path d="M98.083,96.102l-9.414,5.436c-4.99,9.231 -11.902,13.027 -20.566,11.873l0,-16.001" style="fill:none;stroke:#ff962c;stroke-width:1px;"/><path d="M51.358,25.584l48.121,53.711l0,15.718" style="fill:none;stroke:#ff962c;stroke-width:1px;"/><path d="M35.159,34.936l43.353,56.157l0,20.999" style="fill:none;stroke:#ff962c;stroke-width:1px;"/><path d="M64.724,17.867l53.324,50.707l0,18.726" style="fill:none;stroke:#ff962c;stroke-width:1px;"/><path d="M28.163,41.232l39.94,72.179" style="fill:none;stroke:#ff962c;stroke-width:1px;"/><path d="M28.163,39.346l39.94,58.064l57.363,-33.118" style="fill:none;stroke:#ff962c;stroke-width:1px;"/><path d="M109.954,88.965l0,-15.718l-51.175,-51.497" style="fill:none;stroke:#ff962c;stroke-width:1px;"/><path d="M43.784,30.134l44.885,55.402l0,15.718" style="fill:none;stroke:#ff962c;stroke-width:1px;"/></g></g></g></g></svg>